<?xml version="1.0" encoding="utf-8"?>
<!-- Svg Vector Icons : http://www.onlinewebfonts.com/icon -->
<!DOCTYPE svg PUBLIC "-//W3C//DTD SVG 1.1//EN" "http://www.w3.org/Graphics/SVG/1.1/DTD/svg11.dtd">
<svg version="1.1" xmlns="http://www.w3.org/2000/svg" xmlns:xlink="http://www.w3.org/1999/xlink" x="0px" y="0px" viewBox="0 0 1000 1000" enable-background="new 0 0 1000 1000" xml:space="preserve">
<metadata> Svg Vector Icons : http://www.onlinewebfonts.com/icon </metadata>
<g><g transform="translate(0.000000,511.000000) scale(0.100000,-0.100000)"><path d="M4659.2,2722.2c-829.6-98.7-1541.7-345.4-2329-808.4C1658.1,1519,927.2,943.2,335,341.6L100,104.2l340.8-333.7c1264.4-1240.9,2589.8-2002.3,3901.2-2242c307.9-56.4,1008.2-56.4,1316.1,0c1313.7,239.7,2646.2,1005.9,3901.2,2242L9900,106.5l-340.8,336.1C8219.7,1761,6746.1,2569.5,5418.3,2712.8C5204.5,2736.3,4816.7,2741,4659.2,2722.2z M5446.5,1932.6c491.2-134,864.8-401.9,1128.1-808.4c209.2-319.6,293.8-608.7,293.8-1017.6c0-528.8-178.6-965.9-540.5-1327.8c-361.9-361.9-799-540.5-1327.8-540.5c-408.9,0-698,84.6-1017.6,293.8c-510,331.4-815.5,857.8-855.5,1471.2c-61.1,940,596.9,1769.6,1555.8,1957.6C4840.2,1991.3,5286.7,1974.9,5446.5,1932.6z"/><path d="M4779.1,1023.1c-148.1-37.6-359.6-164.5-463-275c-51.7-56.4-129.3-173.9-169.2-260.9c-68.2-143.3-75.2-178.6-75.2-383.1c0-211.5,4.7-232.7,87-401.9c105.8-213.8,242.1-345.4,460.6-448.9c143.4-68.2,178.6-75.2,380.7-75.2c202.1,0,237.4,7.1,380.7,75.2c218.6,103.4,354.9,235,460.6,448.9c82.3,169.2,87,190.4,87,404.2c0,213.9-4.7,235-87,404.2c-159.8,319.6-441.8,510-789.6,526.4C4953,1041.9,4830.8,1034.8,4779.1,1023.1z"/></g></g>
</svg>