<?xml version="1.0" encoding="utf-8"?>
<!-- Svg Vector Icons : http://www.onlinewebfonts.com/icon -->
<!DOCTYPE svg PUBLIC "-//W3C//DTD SVG 1.1//EN" "http://www.w3.org/Graphics/SVG/1.1/DTD/svg11.dtd">
<svg version="1.1" xmlns="http://www.w3.org/2000/svg" xmlns:xlink="http://www.w3.org/1999/xlink" x="0px" y="0px" viewBox="0 0 1000 1000" enable-background="new 0 0 1000 1000" xml:space="preserve">
<metadata> Svg Vector Icons : http://www.onlinewebfonts.com/icon </metadata>
<g><g transform="translate(0.000000,512.000000) scale(0.100000,-0.100000)"><path fill="#f01c24" d="M4529.9,5007.7c-1154.6-118.9-2188.3-608-2999.6-1419.2C751.6,2809.8,287.5,1860.4,124.4,723.1c-32.6-226.3-32.6-982,0-1208.3c163-1137.3,629.1-2086.7,1405.8-2865.4c776.8-776.7,1729.9-1244.7,2865.3-1405.8c226.3-32.6,982-32.6,1208.3,0c935.9,134.3,1781.7,492.9,2474.1,1052.9c234,189.9,575.4,531.3,761.4,763.3c454.5,567.7,824.7,1354,962.8,2046.4C9884.7-487.1,9900-329.8,9900,119c0,594.6-65.2,1006.9-237.8,1530.5c-243.6,742.2-621.4,1357.9-1177.6,1919.8C7721.3,4342.2,6793,4810.2,5690.2,4980.9C5448.6,5017.3,4775.4,5034.6,4529.9,5007.7z M5364.2,3782.2c464.1-47.9,847.7-161.1,1275.4-374c435.4-218.6,815.1-506.3,1108.5-842C8638,1545.9,8910.4,188,8478.8-1077.8c-72.9-211-287.7-661.7-356.7-746.1l-44.1-53.7L5538.7,663.7L2999.4,3203l111.2,72.9c370.2,235.9,995.4,448.8,1476.8,502.5C4800.3,3803.3,5147.4,3805.2,5364.2,3782.2z M4549.1-341.3L7099.9-2894l-47.9-36.4c-176.5-134.3-552.4-324.1-855.4-427.7c-1256.2-435.4-2623.7-161.1-3644,728.8c-335.6,293.4-623.3,673.2-842,1108.5c-212.9,427.7-326,811.3-374,1275.4c-69,673.2,55.6,1359.8,364.4,1985c117,237.8,257,469.9,281.9,469.9C1992.5,2209.5,3147.1,1060.7,4549.1-341.3z"/></g></g>
</svg>