<svg id="svg" version="1.1" xmlns="http://www.w3.org/2000/svg" xmlns:xlink="http://www.w3.org/1999/xlink" width="400" height="400" viewBox="0, 0, 400,400"><g id="svgg"><path id="path0" d="M32.312 0.222 C 32.177 0.356,31.255 0.467,30.263 0.467 C 29.158 0.467,28.383 0.667,28.262 0.984 C 28.140 1.300,27.662 1.425,27.032 1.304 C 26.288 1.162,26.000 1.277,26.000 1.716 C 26.000 2.128,25.741 2.257,25.200 2.116 C 24.753 1.999,24.400 2.104,24.400 2.353 C 24.400 2.599,24.040 2.800,23.600 2.800 C 23.160 2.800,22.800 2.980,22.800 3.200 C 22.800 3.420,22.440 3.600,22.000 3.600 C 21.560 3.600,21.200 3.780,21.200 4.000 C 21.200 4.220,20.840 4.400,20.400 4.400 C 19.655 4.400,19.399 4.838,19.581 5.800 C 19.623 6.020,19.428 5.975,19.149 5.700 C 18.458 5.021,17.864 5.068,18.137 5.780 C 18.285 6.167,18.167 6.285,17.780 6.137 C 17.248 5.933,16.999 6.440,17.175 7.368 C 17.214 7.570,16.981 7.516,16.658 7.248 C 16.011 6.711,8.171 14.107,8.620 14.832 C 8.742 15.029,8.533 15.073,8.156 14.928 C 7.606 14.717,7.516 14.836,7.698 15.533 C 7.857 16.140,7.744 16.400,7.320 16.400 C 6.955 16.400,6.803 16.631,6.937 16.980 C 7.085 17.367,6.967 17.485,6.580 17.337 C 6.210 17.195,6.000 17.367,6.000 17.810 C 6.000 18.193,5.623 18.833,5.163 19.232 C 4.703 19.631,4.444 20.148,4.589 20.382 C 4.733 20.615,4.569 20.914,4.225 21.046 C 3.881 21.178,3.600 21.626,3.600 22.043 C 3.600 22.459,3.420 22.800,3.200 22.800 C 2.980 22.800,2.800 23.340,2.800 24.000 C 2.800 24.660,2.599 25.200,2.353 25.200 C 2.091 25.200,1.987 25.618,2.100 26.210 C 2.223 26.857,2.075 27.342,1.687 27.559 C 1.301 27.775,1.164 28.218,1.309 28.774 C 1.454 29.328,1.331 29.728,0.973 29.866 C 0.567 30.022,0.435 30.678,0.504 32.203 C 0.557 33.369,0.475 34.246,0.322 34.152 C 0.169 34.057,0.043 36.869,0.043 40.400 C 0.043 43.931,0.169 46.743,0.322 46.648 C 0.475 46.552,0.538 47.448,0.463 48.637 C 0.375 50.018,0.484 50.800,0.763 50.800 C 1.004 50.800,1.200 51.498,1.200 52.357 C 1.200 53.365,1.409 53.995,1.793 54.142 C 2.131 54.272,2.285 54.635,2.150 54.985 C 2.006 55.362,2.136 55.600,2.488 55.600 C 2.898 55.600,3.011 55.943,2.885 56.800 C 2.780 57.520,2.887 58.000,3.155 58.000 C 3.400 58.000,3.600 58.360,3.600 58.800 C 3.600 59.240,3.780 59.600,4.000 59.600 C 4.220 59.600,4.400 59.917,4.400 60.305 C 4.400 60.693,4.847 61.346,5.392 61.755 C 5.938 62.165,6.279 62.672,6.149 62.882 C 6.019 63.092,6.293 63.530,6.757 63.855 C 7.220 64.180,7.600 64.713,7.600 65.041 C 7.600 65.892,9.519 67.697,10.065 67.360 C 10.317 67.204,10.416 67.250,10.285 67.463 C 10.153 67.675,39.782 97.583,76.126 133.925 L 142.206 200.000 76.126 266.075 C 39.782 302.417,10.153 332.325,10.285 332.537 C 10.416 332.750,10.317 332.796,10.065 332.640 C 9.519 332.303,7.600 334.108,7.600 334.959 C 7.600 335.287,7.220 335.820,6.757 336.145 C 6.293 336.470,6.019 336.908,6.149 337.118 C 6.279 337.328,5.938 337.835,5.392 338.245 C 4.847 338.654,4.400 339.307,4.400 339.695 C 4.400 340.083,4.220 340.400,4.000 340.400 C 3.780 340.400,3.600 340.760,3.600 341.200 C 3.600 341.640,3.400 342.000,3.155 342.000 C 2.887 342.000,2.780 342.480,2.885 343.200 C 3.011 344.057,2.898 344.400,2.488 344.400 C 2.136 344.400,2.006 344.638,2.150 345.015 C 2.285 345.365,2.131 345.728,1.793 345.858 C 1.409 346.005,1.200 346.635,1.200 347.643 C 1.200 348.502,1.004 349.200,0.763 349.200 C 0.484 349.200,0.375 349.982,0.463 351.363 C 0.538 352.552,0.475 353.448,0.322 353.352 C 0.169 353.257,0.043 356.069,0.043 359.600 C 0.043 363.131,0.169 365.943,0.322 365.848 C 0.475 365.754,0.557 366.631,0.504 367.797 C 0.437 369.291,0.570 369.980,0.955 370.127 C 1.300 370.260,1.429 370.716,1.304 371.368 C 1.187 371.979,1.289 372.400,1.553 372.400 C 1.799 372.400,2.000 372.940,2.000 373.600 C 2.000 374.260,2.180 374.800,2.400 374.800 C 2.620 374.800,2.800 375.340,2.800 376.000 C 2.800 376.660,2.980 377.200,3.200 377.200 C 3.420 377.200,3.600 377.560,3.600 378.000 C 3.600 378.887,4.211 379.080,4.551 378.300 C 4.670 378.025,4.664 378.301,4.538 378.913 C 4.366 379.739,4.525 380.215,5.153 380.760 C 5.619 381.163,6.000 381.807,6.000 382.190 C 6.000 382.633,6.210 382.805,6.580 382.663 C 6.967 382.515,7.085 382.633,6.937 383.020 C 6.803 383.369,6.955 383.600,7.320 383.600 C 7.744 383.600,7.857 383.860,7.698 384.467 C 7.516 385.164,7.606 385.283,8.156 385.072 C 8.566 384.915,8.742 384.969,8.595 385.208 C 8.275 385.727,9.473 386.925,9.992 386.605 C 10.231 386.457,10.285 386.635,10.126 387.049 C 9.921 387.584,10.016 387.679,10.551 387.474 C 10.931 387.328,11.155 387.348,11.050 387.519 C 10.603 388.243,15.981 393.314,16.627 392.778 C 16.967 392.495,17.214 392.430,17.175 392.632 C 16.999 393.560,17.248 394.067,17.780 393.863 C 18.167 393.715,18.285 393.833,18.137 394.220 C 17.864 394.932,18.458 394.979,19.149 394.300 C 19.428 394.025,19.623 393.980,19.581 394.200 C 19.399 395.162,19.655 395.600,20.400 395.600 C 20.840 395.600,21.200 395.780,21.200 396.000 C 21.200 396.220,21.560 396.400,22.000 396.400 C 22.440 396.400,22.800 396.580,22.800 396.800 C 22.800 397.020,23.160 397.200,23.600 397.200 C 24.040 397.200,24.400 397.401,24.400 397.647 C 24.400 397.896,24.753 398.001,25.200 397.884 C 25.714 397.750,26.000 397.872,26.000 398.225 C 26.000 398.600,26.458 398.758,27.436 398.722 C 28.225 398.692,28.990 398.850,29.136 399.073 C 29.566 399.734,49.132 400.337,50.129 399.720 C 50.382 399.564,51.152 399.485,51.841 399.544 C 52.642 399.613,53.174 399.444,53.316 399.076 C 53.464 398.688,53.897 398.568,54.634 398.709 C 55.513 398.877,55.683 398.793,55.490 398.290 C 55.302 397.801,55.465 397.701,56.224 397.839 C 56.761 397.936,57.200 397.832,57.200 397.608 C 57.200 397.384,57.740 397.200,58.400 397.200 C 59.060 397.200,59.600 397.020,59.600 396.800 C 59.600 396.580,59.920 396.400,60.312 396.400 C 60.703 396.400,61.283 396.040,61.600 395.600 C 61.917 395.160,62.516 394.800,62.931 394.800 C 63.426 394.800,63.609 394.600,63.463 394.220 C 63.322 393.852,63.433 393.715,63.769 393.843 C 64.059 393.955,64.409 393.754,64.546 393.398 C 64.682 393.041,64.977 392.862,65.200 393.000 C 65.724 393.324,66.928 392.131,66.605 391.608 C 66.469 391.388,66.604 391.303,66.904 391.419 C 67.215 391.538,67.672 391.213,67.967 390.662 C 68.338 389.968,68.715 389.757,69.309 389.913 C 69.947 390.079,70.079 389.982,69.888 389.485 C 69.706 389.010,69.811 388.906,70.290 389.090 C 70.770 389.274,70.874 389.170,70.690 388.690 C 70.506 388.210,70.610 388.106,71.090 388.290 C 71.570 388.474,71.674 388.370,71.490 387.890 C 71.306 387.410,71.410 387.306,71.890 387.490 C 72.370 387.674,72.474 387.570,72.290 387.090 C 72.106 386.610,72.210 386.506,72.690 386.690 C 73.170 386.874,73.274 386.770,73.090 386.290 C 72.906 385.810,73.010 385.706,73.490 385.890 C 73.970 386.074,74.074 385.970,73.890 385.490 C 73.706 385.010,73.810 384.906,74.290 385.090 C 74.770 385.274,74.874 385.170,74.690 384.690 C 74.506 384.210,74.610 384.106,75.090 384.290 C 75.570 384.474,75.674 384.370,75.490 383.890 C 75.306 383.410,75.410 383.306,75.890 383.490 C 76.370 383.674,76.474 383.570,76.290 383.090 C 76.106 382.610,76.210 382.506,76.690 382.690 C 77.170 382.874,77.274 382.770,77.090 382.290 C 76.906 381.810,77.010 381.706,77.490 381.890 C 77.970 382.074,78.074 381.970,77.890 381.490 C 77.706 381.010,77.810 380.906,78.290 381.090 C 78.770 381.274,78.874 381.170,78.690 380.690 C 78.506 380.210,78.610 380.106,79.090 380.290 C 79.570 380.474,79.674 380.370,79.490 379.890 C 79.306 379.410,79.410 379.306,79.890 379.490 C 80.370 379.674,80.474 379.570,80.290 379.090 C 80.106 378.610,80.210 378.506,80.690 378.690 C 81.170 378.874,81.274 378.770,81.090 378.290 C 80.906 377.810,81.010 377.706,81.490 377.890 C 81.970 378.074,82.074 377.970,81.890 377.490 C 81.706 377.010,81.810 376.906,82.290 377.090 C 82.770 377.274,82.874 377.170,82.690 376.690 C 82.506 376.210,82.610 376.106,83.090 376.290 C 83.570 376.474,83.674 376.370,83.490 375.890 C 83.306 375.410,83.410 375.306,83.890 375.490 C 84.370 375.674,84.474 375.570,84.290 375.090 C 84.106 374.610,84.210 374.506,84.690 374.690 C 85.170 374.874,85.274 374.770,85.090 374.290 C 84.906 373.810,85.010 373.706,85.490 373.890 C 85.970 374.074,86.074 373.970,85.890 373.490 C 85.706 373.010,85.810 372.906,86.290 373.090 C 86.770 373.274,86.874 373.170,86.690 372.690 C 86.506 372.210,86.610 372.106,87.090 372.290 C 87.570 372.474,87.674 372.370,87.490 371.890 C 87.306 371.410,87.410 371.306,87.890 371.490 C 88.370 371.674,88.474 371.570,88.290 371.090 C 88.106 370.610,88.210 370.506,88.690 370.690 C 89.170 370.874,89.274 370.770,89.090 370.290 C 88.906 369.810,89.010 369.706,89.490 369.890 C 89.970 370.074,90.074 369.970,89.890 369.490 C 89.706 369.010,89.810 368.906,90.290 369.090 C 90.770 369.274,90.874 369.170,90.690 368.690 C 90.506 368.210,90.610 368.106,91.090 368.290 C 91.570 368.474,91.674 368.370,91.490 367.890 C 91.306 367.410,91.410 367.306,91.890 367.490 C 92.370 367.674,92.474 367.570,92.290 367.090 C 92.106 366.610,92.210 366.506,92.690 366.690 C 93.170 366.874,93.274 366.770,93.090 366.290 C 92.906 365.810,93.010 365.706,93.490 365.890 C 93.970 366.074,94.074 365.970,93.890 365.490 C 93.706 365.010,93.810 364.906,94.290 365.090 C 94.770 365.274,94.874 365.170,94.690 364.690 C 94.506 364.210,94.610 364.106,95.090 364.290 C 95.570 364.474,95.674 364.370,95.490 363.890 C 95.306 363.410,95.410 363.306,95.890 363.490 C 96.370 363.674,96.474 363.570,96.290 363.090 C 96.106 362.610,96.210 362.506,96.690 362.690 C 97.170 362.874,97.274 362.770,97.090 362.290 C 96.906 361.810,97.010 361.706,97.490 361.890 C 97.970 362.074,98.074 361.970,97.890 361.490 C 97.706 361.010,97.810 360.906,98.290 361.090 C 98.770 361.274,98.874 361.170,98.690 360.690 C 98.506 360.210,98.610 360.106,99.090 360.290 C 99.570 360.474,99.674 360.370,99.490 359.890 C 99.306 359.410,99.410 359.306,99.890 359.490 C 100.370 359.674,100.474 359.570,100.290 359.090 C 100.106 358.610,100.210 358.506,100.690 358.690 C 101.170 358.874,101.274 358.770,101.090 358.290 C 100.906 357.810,101.010 357.706,101.490 357.890 C 101.970 358.074,102.074 357.970,101.890 357.490 C 101.706 357.010,101.810 356.906,102.290 357.090 C 102.770 357.274,102.874 357.170,102.690 356.690 C 102.506 356.210,102.610 356.106,103.090 356.290 C 103.570 356.474,103.674 356.370,103.490 355.890 C 103.306 355.410,103.410 355.306,103.890 355.490 C 104.370 355.674,104.474 355.570,104.290 355.090 C 104.106 354.610,104.210 354.506,104.690 354.690 C 105.170 354.874,105.274 354.770,105.090 354.290 C 104.906 353.810,105.010 353.706,105.490 353.890 C 105.970 354.074,106.074 353.970,105.890 353.490 C 105.706 353.010,105.810 352.906,106.290 353.090 C 106.770 353.274,106.874 353.170,106.690 352.690 C 106.506 352.210,106.610 352.106,107.090 352.290 C 107.570 352.474,107.674 352.370,107.490 351.890 C 107.306 351.410,107.410 351.306,107.890 351.490 C 108.370 351.674,108.474 351.570,108.290 351.090 C 108.106 350.610,108.210 350.506,108.690 350.690 C 109.170 350.874,109.274 350.770,109.090 350.290 C 108.906 349.810,109.010 349.706,109.490 349.890 C 109.970 350.074,110.074 349.970,109.890 349.490 C 109.706 349.010,109.810 348.906,110.290 349.090 C 110.770 349.274,110.874 349.170,110.690 348.690 C 110.506 348.210,110.610 348.106,111.090 348.290 C 111.570 348.474,111.674 348.370,111.490 347.890 C 111.306 347.410,111.410 347.306,111.890 347.490 C 112.370 347.674,112.474 347.570,112.290 347.090 C 112.106 346.610,112.210 346.506,112.690 346.690 C 113.170 346.874,113.274 346.770,113.090 346.290 C 112.906 345.810,113.010 345.706,113.490 345.890 C 113.970 346.074,114.074 345.970,113.890 345.490 C 113.706 345.010,113.810 344.906,114.290 345.090 C 114.770 345.274,114.874 345.170,114.690 344.690 C 114.506 344.210,114.610 344.106,115.090 344.290 C 115.570 344.474,115.674 344.370,115.490 343.890 C 115.306 343.410,115.410 343.306,115.890 343.490 C 116.370 343.674,116.474 343.570,116.290 343.090 C 116.106 342.610,116.210 342.506,116.690 342.690 C 117.170 342.874,117.274 342.770,117.090 342.290 C 116.906 341.810,117.010 341.706,117.490 341.890 C 117.970 342.074,118.074 341.970,117.890 341.490 C 117.706 341.010,117.810 340.906,118.290 341.090 C 118.770 341.274,118.874 341.170,118.690 340.690 C 118.506 340.210,118.610 340.106,119.090 340.290 C 119.570 340.474,119.674 340.370,119.490 339.890 C 119.306 339.410,119.410 339.306,119.890 339.490 C 120.370 339.674,120.474 339.570,120.290 339.090 C 120.106 338.610,120.210 338.506,120.690 338.690 C 121.170 338.874,121.274 338.770,121.090 338.290 C 120.906 337.810,121.010 337.706,121.490 337.890 C 121.970 338.074,122.074 337.970,121.890 337.490 C 121.706 337.010,121.810 336.906,122.290 337.090 C 122.770 337.274,122.874 337.170,122.690 336.690 C 122.506 336.210,122.610 336.106,123.090 336.290 C 123.570 336.474,123.674 336.370,123.490 335.890 C 123.306 335.410,123.410 335.306,123.890 335.490 C 124.370 335.674,124.474 335.570,124.290 335.090 C 124.106 334.610,124.210 334.506,124.690 334.690 C 125.170 334.874,125.274 334.770,125.090 334.290 C 124.906 333.810,125.010 333.706,125.490 333.890 C 125.970 334.074,126.074 333.970,125.890 333.490 C 125.706 333.010,125.810 332.906,126.290 333.090 C 126.770 333.274,126.874 333.170,126.690 332.690 C 126.506 332.210,126.610 332.106,127.090 332.290 C 127.570 332.474,127.674 332.370,127.490 331.890 C 127.306 331.410,127.410 331.306,127.890 331.490 C 128.370 331.674,128.474 331.570,128.290 331.090 C 128.106 330.610,128.210 330.506,128.690 330.690 C 129.170 330.874,129.274 330.770,129.090 330.290 C 128.906 329.810,129.010 329.706,129.490 329.890 C 129.970 330.074,130.074 329.970,129.890 329.490 C 129.706 329.010,129.810 328.906,130.290 329.090 C 130.770 329.274,130.874 329.170,130.690 328.690 C 130.506 328.210,130.610 328.106,131.090 328.290 C 131.570 328.474,131.674 328.370,131.490 327.890 C 131.306 327.410,131.410 327.306,131.890 327.490 C 132.370 327.674,132.474 327.570,132.290 327.090 C 132.106 326.610,132.210 326.506,132.690 326.690 C 133.170 326.874,133.274 326.770,133.090 326.290 C 132.906 325.810,133.010 325.706,133.490 325.890 C 133.970 326.074,134.074 325.970,133.890 325.490 C 133.706 325.010,133.810 324.906,134.290 325.090 C 134.770 325.274,134.874 325.170,134.690 324.690 C 134.506 324.210,134.610 324.106,135.090 324.290 C 135.570 324.474,135.674 324.370,135.490 323.890 C 135.306 323.410,135.410 323.306,135.890 323.490 C 136.370 323.674,136.474 323.570,136.290 323.090 C 136.106 322.610,136.210 322.506,136.690 322.690 C 137.170 322.874,137.274 322.770,137.090 322.290 C 136.906 321.810,137.010 321.706,137.490 321.890 C 137.970 322.074,138.074 321.970,137.890 321.490 C 137.706 321.010,137.810 320.906,138.290 321.090 C 138.770 321.274,138.874 321.170,138.690 320.690 C 138.506 320.210,138.610 320.106,139.090 320.290 C 139.570 320.474,139.674 320.370,139.490 319.890 C 139.306 319.410,139.410 319.306,139.890 319.490 C 140.370 319.674,140.474 319.570,140.290 319.090 C 140.106 318.610,140.210 318.506,140.690 318.690 C 141.170 318.874,141.274 318.770,141.090 318.290 C 140.906 317.810,141.010 317.706,141.490 317.890 C 141.970 318.074,142.074 317.970,141.890 317.490 C 141.706 317.010,141.810 316.906,142.290 317.090 C 142.770 317.274,142.874 317.170,142.690 316.690 C 142.506 316.210,142.610 316.106,143.090 316.290 C 143.570 316.474,143.674 316.370,143.490 315.890 C 143.306 315.410,143.410 315.306,143.890 315.490 C 144.370 315.674,144.474 315.570,144.290 315.090 C 144.106 314.610,144.210 314.506,144.690 314.690 C 145.170 314.874,145.274 314.770,145.090 314.290 C 144.906 313.810,145.010 313.706,145.490 313.890 C 145.970 314.074,146.074 313.970,145.890 313.490 C 145.706 313.010,145.810 312.906,146.290 313.090 C 146.770 313.274,146.874 313.170,146.690 312.690 C 146.506 312.210,146.610 312.106,147.090 312.290 C 147.570 312.474,147.674 312.370,147.490 311.890 C 147.306 311.410,147.410 311.306,147.890 311.490 C 148.370 311.674,148.474 311.570,148.290 311.090 C 148.106 310.610,148.210 310.506,148.690 310.690 C 149.170 310.874,149.274 310.770,149.090 310.290 C 148.906 309.810,149.010 309.706,149.490 309.890 C 149.970 310.074,150.074 309.970,149.890 309.490 C 149.706 309.010,149.810 308.906,150.290 309.090 C 150.770 309.274,150.874 309.170,150.690 308.690 C 150.506 308.210,150.610 308.106,151.090 308.290 C 151.570 308.474,151.674 308.370,151.490 307.890 C 151.306 307.410,151.410 307.306,151.890 307.490 C 152.370 307.674,152.474 307.570,152.290 307.090 C 152.106 306.610,152.210 306.506,152.690 306.690 C 153.170 306.874,153.274 306.770,153.090 306.290 C 152.906 305.810,153.010 305.706,153.490 305.890 C 153.970 306.074,154.074 305.970,153.890 305.490 C 153.706 305.010,153.810 304.906,154.290 305.090 C 154.770 305.274,154.874 305.170,154.690 304.690 C 154.506 304.210,154.610 304.106,155.090 304.290 C 155.570 304.474,155.674 304.370,155.490 303.890 C 155.306 303.410,155.410 303.306,155.890 303.490 C 156.370 303.674,156.474 303.570,156.290 303.090 C 156.106 302.610,156.210 302.506,156.690 302.690 C 157.170 302.874,157.274 302.770,157.090 302.290 C 156.906 301.810,157.010 301.706,157.490 301.890 C 157.970 302.074,158.074 301.970,157.890 301.490 C 157.706 301.010,157.810 300.906,158.290 301.090 C 158.770 301.274,158.874 301.170,158.690 300.690 C 158.506 300.210,158.610 300.106,159.090 300.290 C 159.570 300.474,159.674 300.370,159.490 299.890 C 159.306 299.410,159.410 299.306,159.890 299.490 C 160.370 299.674,160.474 299.570,160.290 299.090 C 160.106 298.610,160.210 298.506,160.690 298.690 C 161.170 298.874,161.274 298.770,161.090 298.290 C 160.906 297.810,161.010 297.706,161.490 297.890 C 161.970 298.074,162.074 297.970,161.890 297.490 C 161.706 297.010,161.810 296.906,162.290 297.090 C 162.770 297.274,162.874 297.170,162.690 296.690 C 162.506 296.210,162.610 296.106,163.090 296.290 C 163.570 296.474,163.674 296.370,163.490 295.890 C 163.306 295.410,163.410 295.306,163.890 295.490 C 164.370 295.674,164.474 295.570,164.290 295.090 C 164.106 294.610,164.210 294.506,164.690 294.690 C 165.170 294.874,165.274 294.770,165.090 294.290 C 164.906 293.810,165.010 293.706,165.490 293.890 C 165.970 294.074,166.074 293.970,165.890 293.490 C 165.706 293.010,165.810 292.906,166.290 293.090 C 166.770 293.274,166.874 293.170,166.690 292.690 C 166.506 292.210,166.610 292.106,167.090 292.290 C 167.570 292.474,167.674 292.370,167.490 291.890 C 167.306 291.410,167.410 291.306,167.890 291.490 C 168.370 291.674,168.474 291.570,168.290 291.090 C 168.106 290.610,168.210 290.506,168.690 290.690 C 169.170 290.874,169.274 290.770,169.090 290.290 C 168.906 289.810,169.010 289.706,169.490 289.890 C 169.970 290.074,170.074 289.970,169.890 289.490 C 169.706 289.010,169.810 288.906,170.290 289.090 C 170.770 289.274,170.874 289.170,170.690 288.690 C 170.506 288.210,170.610 288.106,171.090 288.290 C 171.570 288.474,171.674 288.370,171.490 287.890 C 171.306 287.410,171.410 287.306,171.890 287.490 C 172.370 287.674,172.474 287.570,172.290 287.090 C 172.106 286.610,172.210 286.506,172.690 286.690 C 173.170 286.874,173.274 286.770,173.090 286.290 C 172.906 285.810,173.010 285.706,173.490 285.890 C 173.970 286.074,174.074 285.970,173.890 285.490 C 173.706 285.010,173.810 284.906,174.290 285.090 C 174.770 285.274,174.874 285.170,174.690 284.690 C 174.506 284.210,174.610 284.106,175.090 284.290 C 175.570 284.474,175.674 284.370,175.490 283.890 C 175.306 283.410,175.410 283.306,175.890 283.490 C 176.370 283.674,176.474 283.570,176.290 283.090 C 176.106 282.610,176.210 282.506,176.690 282.690 C 177.170 282.874,177.274 282.770,177.090 282.290 C 176.906 281.810,177.010 281.706,177.490 281.890 C 177.970 282.074,178.074 281.970,177.890 281.490 C 177.706 281.010,177.810 280.906,178.290 281.090 C 178.770 281.274,178.874 281.170,178.690 280.690 C 178.506 280.210,178.610 280.106,179.090 280.290 C 179.570 280.474,179.674 280.370,179.490 279.890 C 179.306 279.410,179.410 279.306,179.890 279.490 C 180.370 279.674,180.474 279.570,180.290 279.090 C 180.106 278.610,180.210 278.506,180.690 278.690 C 181.170 278.874,181.274 278.770,181.090 278.290 C 180.906 277.810,181.010 277.706,181.490 277.890 C 181.970 278.074,182.074 277.970,181.890 277.490 C 181.706 277.010,181.810 276.906,182.290 277.090 C 182.770 277.274,182.874 277.170,182.690 276.690 C 182.506 276.210,182.610 276.106,183.090 276.290 C 183.570 276.474,183.674 276.370,183.490 275.890 C 183.306 275.410,183.410 275.306,183.890 275.490 C 184.370 275.674,184.474 275.570,184.290 275.090 C 184.106 274.610,184.210 274.506,184.690 274.690 C 185.170 274.874,185.274 274.770,185.090 274.290 C 184.906 273.810,185.010 273.706,185.490 273.890 C 185.970 274.074,186.074 273.970,185.890 273.490 C 185.706 273.010,185.810 272.906,186.290 273.090 C 186.770 273.274,186.874 273.170,186.690 272.690 C 186.506 272.210,186.610 272.106,187.090 272.290 C 187.570 272.474,187.674 272.370,187.490 271.890 C 187.306 271.410,187.410 271.306,187.890 271.490 C 188.370 271.674,188.474 271.570,188.290 271.090 C 188.106 270.610,188.210 270.506,188.690 270.690 C 189.170 270.874,189.274 270.770,189.090 270.290 C 188.906 269.810,189.010 269.706,189.490 269.890 C 189.970 270.074,190.074 269.970,189.890 269.490 C 189.706 269.010,189.810 268.906,190.290 269.090 C 190.770 269.274,190.874 269.170,190.690 268.690 C 190.506 268.210,190.610 268.106,191.090 268.290 C 191.570 268.474,191.674 268.370,191.490 267.890 C 191.306 267.410,191.410 267.306,191.890 267.490 C 192.370 267.674,192.474 267.570,192.290 267.090 C 192.106 266.610,192.210 266.506,192.690 266.690 C 193.170 266.874,193.274 266.770,193.090 266.290 C 192.906 265.810,193.010 265.706,193.490 265.890 C 193.970 266.074,194.074 265.970,193.890 265.490 C 193.706 265.010,193.810 264.906,194.290 265.090 C 194.770 265.274,194.874 265.170,194.690 264.690 C 194.506 264.210,194.610 264.106,195.090 264.290 C 195.570 264.474,195.674 264.370,195.490 263.890 C 195.306 263.410,195.410 263.306,195.890 263.490 C 196.370 263.674,196.474 263.570,196.290 263.090 C 196.106 262.610,196.210 262.506,196.690 262.690 C 197.170 262.874,197.274 262.770,197.090 262.290 C 196.906 261.810,197.010 261.706,197.490 261.890 C 197.970 262.074,198.074 261.970,197.890 261.490 C 197.706 261.010,197.810 260.906,198.290 261.090 C 198.770 261.274,198.874 261.170,198.690 260.690 C 198.506 260.210,198.610 260.106,199.090 260.290 C 199.570 260.474,199.674 260.370,199.490 259.890 C 199.306 259.410,199.410 259.306,199.890 259.490 C 200.366 259.673,200.474 259.569,200.295 259.103 C 200.154 258.736,200.292 258.374,200.620 258.247 C 200.934 258.127,201.148 258.194,201.095 258.395 C 200.963 258.906,334.471 392.403,334.869 392.158 C 335.046 392.048,335.073 392.267,334.928 392.644 C 334.717 393.194,334.836 393.284,335.533 393.102 C 336.010 392.977,336.400 393.051,336.400 393.266 C 336.400 394.072,337.648 394.970,337.993 394.412 C 338.227 394.033,338.388 394.131,338.592 394.776 C 338.768 395.328,339.089 395.575,339.451 395.436 C 339.770 395.313,340.133 395.480,340.258 395.807 C 340.383 396.133,340.826 396.400,341.243 396.400 C 341.659 396.400,342.000 396.580,342.000 396.800 C 342.000 397.020,342.360 397.200,342.800 397.200 C 343.240 397.200,343.600 397.401,343.600 397.647 C 343.600 397.896,343.953 398.001,344.400 397.884 C 344.941 397.743,345.200 397.872,345.200 398.284 C 345.200 398.720,345.488 398.838,346.210 398.700 C 346.877 398.573,347.343 398.727,347.582 399.154 C 348.132 400.136,371.868 400.136,372.418 399.154 C 372.657 398.727,373.123 398.573,373.790 398.700 C 374.512 398.838,374.800 398.720,374.800 398.284 C 374.800 397.872,375.059 397.743,375.600 397.884 C 376.047 398.001,376.400 397.896,376.400 397.647 C 376.400 397.401,376.760 397.200,377.200 397.200 C 377.640 397.200,378.000 397.020,378.000 396.800 C 378.000 396.580,378.341 396.400,378.757 396.400 C 379.174 396.400,379.617 396.133,379.742 395.807 C 379.867 395.480,380.230 395.313,380.549 395.436 C 380.911 395.575,381.232 395.328,381.408 394.776 C 381.612 394.131,381.773 394.033,382.007 394.412 C 382.352 394.970,383.600 394.072,383.600 393.266 C 383.600 393.051,383.990 392.977,384.467 393.102 C 385.164 393.284,385.283 393.194,385.072 392.644 C 384.927 392.267,384.962 392.053,385.148 392.168 C 385.617 392.458,394.073 384.041,393.783 383.573 C 393.654 383.365,393.841 383.082,394.198 382.946 C 394.554 382.809,394.755 382.459,394.643 382.169 C 394.508 381.816,394.654 381.723,395.084 381.888 C 395.622 382.094,395.688 381.912,395.490 380.767 C 395.360 380.015,395.347 379.625,395.460 379.900 C 395.760 380.627,396.530 380.515,396.250 379.785 C 396.112 379.428,396.275 379.069,396.636 378.931 C 397.061 378.768,397.185 378.393,397.025 377.756 C 396.843 377.033,396.927 376.874,397.395 377.053 C 397.817 377.215,398.000 377.031,398.000 376.443 C 398.000 375.979,398.180 375.600,398.400 375.600 C 398.620 375.600,398.800 375.060,398.800 374.400 C 398.800 373.740,398.983 373.200,399.206 373.200 C 399.678 373.200,399.634 374.084,399.861 360.037 C 399.958 354.008,399.912 348.788,399.759 348.437 C 399.606 348.087,399.518 347.418,399.562 346.951 C 399.607 346.484,399.386 346.004,399.071 345.883 C 398.700 345.740,398.568 345.301,398.696 344.632 C 398.841 343.874,398.725 343.600,398.259 343.600 C 397.838 343.600,397.709 343.382,397.874 342.950 C 398.023 342.563,397.863 342.155,397.478 341.940 C 397.124 341.741,396.935 341.314,397.059 340.989 C 397.184 340.665,397.086 340.400,396.843 340.400 C 396.599 340.400,396.400 340.040,396.400 339.600 C 396.400 339.160,396.220 338.800,396.000 338.800 C 395.780 338.800,395.597 339.025,395.594 339.300 C 395.590 339.634,395.462 339.602,395.211 339.203 C 394.973 338.828,394.976 338.464,395.217 338.223 C 395.798 337.642,395.675 337.086,395.020 337.337 C 394.633 337.485,394.515 337.367,394.663 336.980 C 394.803 336.616,394.636 336.400,394.216 336.400 C 393.728 336.400,393.615 336.183,393.800 335.600 C 394.038 334.851,393.466 334.443,393.099 335.100 C 393.007 335.265,392.994 335.155,393.070 334.856 C 393.241 334.184,390.783 331.973,390.214 332.288 C 389.986 332.414,390.025 332.275,390.300 331.979 C 390.977 331.249,390.932 330.664,390.220 330.937 C 389.812 331.093,389.714 330.967,389.890 330.510 C 390.074 330.030,389.970 329.926,389.490 330.110 C 389.010 330.294,388.906 330.190,389.090 329.710 C 389.274 329.230,389.170 329.126,388.690 329.310 C 388.210 329.494,388.106 329.390,388.290 328.910 C 388.474 328.430,388.370 328.326,387.890 328.510 C 387.410 328.694,387.306 328.590,387.490 328.110 C 387.674 327.630,387.570 327.526,387.090 327.710 C 386.610 327.894,386.506 327.790,386.690 327.310 C 386.874 326.830,386.770 326.726,386.290 326.910 C 385.810 327.094,385.706 326.990,385.890 326.510 C 386.074 326.030,385.970 325.926,385.490 326.110 C 385.010 326.294,384.906 326.190,385.090 325.710 C 385.274 325.230,385.170 325.126,384.690 325.310 C 384.210 325.494,384.106 325.390,384.290 324.910 C 384.474 324.430,384.370 324.326,383.890 324.510 C 383.410 324.694,383.306 324.590,383.490 324.110 C 383.674 323.630,383.570 323.526,383.090 323.710 C 382.610 323.894,382.506 323.790,382.690 323.310 C 382.874 322.830,382.770 322.726,382.290 322.910 C 381.810 323.094,381.706 322.990,381.890 322.510 C 382.074 322.030,381.970 321.926,381.490 322.110 C 381.010 322.294,380.906 322.190,381.090 321.710 C 381.274 321.230,381.170 321.126,380.690 321.310 C 380.210 321.494,380.106 321.390,380.290 320.910 C 380.474 320.430,380.370 320.326,379.890 320.510 C 379.410 320.694,379.306 320.590,379.490 320.110 C 379.674 319.630,379.570 319.526,379.090 319.710 C 378.610 319.894,378.506 319.790,378.690 319.310 C 378.874 318.830,378.770 318.726,378.290 318.910 C 377.810 319.094,377.706 318.990,377.890 318.510 C 378.074 318.030,377.970 317.926,377.490 318.110 C 377.010 318.294,376.906 318.190,377.090 317.710 C 377.274 317.230,377.170 317.126,376.690 317.310 C 376.210 317.494,376.106 317.390,376.290 316.910 C 376.474 316.430,376.370 316.326,375.890 316.510 C 375.410 316.694,375.306 316.590,375.490 316.110 C 375.674 315.630,375.570 315.526,375.090 315.710 C 374.610 315.894,374.506 315.790,374.690 315.310 C 374.874 314.830,374.770 314.726,374.290 314.910 C 373.810 315.094,373.706 314.990,373.890 314.510 C 374.074 314.030,373.970 313.926,373.490 314.110 C 373.010 314.294,372.906 314.190,373.090 313.710 C 373.274 313.230,373.170 313.126,372.690 313.310 C 372.210 313.494,372.106 313.390,372.290 312.910 C 372.474 312.430,372.370 312.326,371.890 312.510 C 371.410 312.694,371.306 312.590,371.490 312.110 C 371.674 311.630,371.570 311.526,371.090 311.710 C 370.610 311.894,370.506 311.790,370.690 311.310 C 370.874 310.830,370.770 310.726,370.290 310.910 C 369.810 311.094,369.706 310.990,369.890 310.510 C 370.074 310.030,369.970 309.926,369.490 310.110 C 369.010 310.294,368.906 310.190,369.090 309.710 C 369.274 309.230,369.170 309.126,368.690 309.310 C 368.210 309.494,368.106 309.390,368.290 308.910 C 368.474 308.430,368.370 308.326,367.890 308.510 C 367.410 308.694,367.306 308.590,367.490 308.110 C 367.674 307.630,367.570 307.526,367.090 307.710 C 366.610 307.894,366.506 307.790,366.690 307.310 C 366.874 306.830,366.770 306.726,366.290 306.910 C 365.810 307.094,365.706 306.990,365.890 306.510 C 366.074 306.030,365.970 305.926,365.490 306.110 C 365.010 306.294,364.906 306.190,365.090 305.710 C 365.274 305.230,365.170 305.126,364.690 305.310 C 364.210 305.494,364.106 305.390,364.290 304.910 C 364.474 304.430,364.370 304.326,363.890 304.510 C 363.410 304.694,363.306 304.590,363.490 304.110 C 363.674 303.630,363.570 303.526,363.090 303.710 C 362.610 303.894,362.506 303.790,362.690 303.310 C 362.874 302.830,362.770 302.726,362.290 302.910 C 361.810 303.094,361.706 302.990,361.890 302.510 C 362.074 302.030,361.970 301.926,361.490 302.110 C 361.010 302.294,360.906 302.190,361.090 301.710 C 361.274 301.230,361.170 301.126,360.690 301.310 C 360.210 301.494,360.106 301.390,360.290 300.910 C 360.474 300.430,360.370 300.326,359.890 300.510 C 359.410 300.694,359.306 300.590,359.490 300.110 C 359.674 299.630,359.570 299.526,359.090 299.710 C 358.610 299.894,358.506 299.790,358.690 299.310 C 358.874 298.830,358.770 298.726,358.290 298.910 C 357.810 299.094,357.706 298.990,357.890 298.510 C 358.074 298.030,357.970 297.926,357.490 298.110 C 357.010 298.294,356.906 298.190,357.090 297.710 C 357.274 297.230,357.170 297.126,356.690 297.310 C 356.210 297.494,356.106 297.390,356.290 296.910 C 356.474 296.430,356.370 296.326,355.890 296.510 C 355.410 296.694,355.306 296.590,355.490 296.110 C 355.674 295.630,355.570 295.526,355.090 295.710 C 354.610 295.894,354.506 295.790,354.690 295.310 C 354.874 294.830,354.770 294.726,354.290 294.910 C 353.810 295.094,353.706 294.990,353.890 294.510 C 354.074 294.030,353.970 293.926,353.490 294.110 C 353.010 294.294,352.906 294.190,353.090 293.710 C 353.274 293.230,353.170 293.126,352.690 293.310 C 352.210 293.494,352.106 293.390,352.290 292.910 C 352.474 292.430,352.370 292.326,351.890 292.510 C 351.410 292.694,351.306 292.590,351.490 292.110 C 351.674 291.630,351.570 291.526,351.090 291.710 C 350.610 291.894,350.506 291.790,350.690 291.310 C 350.874 290.830,350.770 290.726,350.290 290.910 C 349.810 291.094,349.706 290.990,349.890 290.510 C 350.074 290.030,349.970 289.926,349.490 290.110 C 349.010 290.294,348.906 290.190,349.090 289.710 C 349.274 289.230,349.170 289.126,348.690 289.310 C 348.210 289.494,348.106 289.390,348.290 288.910 C 348.474 288.430,348.370 288.326,347.890 288.510 C 347.410 288.694,347.306 288.590,347.490 288.110 C 347.674 287.630,347.570 287.526,347.090 287.710 C 346.610 287.894,346.506 287.790,346.690 287.310 C 346.874 286.830,346.770 286.726,346.290 286.910 C 345.810 287.094,345.706 286.990,345.890 286.510 C 346.074 286.030,345.970 285.926,345.490 286.110 C 345.010 286.294,344.906 286.190,345.090 285.710 C 345.274 285.230,345.170 285.126,344.690 285.310 C 344.210 285.494,344.106 285.390,344.290 284.910 C 344.474 284.430,344.370 284.326,343.890 284.510 C 343.410 284.694,343.306 284.590,343.490 284.110 C 343.674 283.630,343.570 283.526,343.090 283.710 C 342.610 283.894,342.506 283.790,342.690 283.310 C 342.874 282.830,342.770 282.726,342.290 282.910 C 341.810 283.094,341.706 282.990,341.890 282.510 C 342.074 282.030,341.970 281.926,341.490 282.110 C 341.010 282.294,340.906 282.190,341.090 281.710 C 341.274 281.230,341.170 281.126,340.690 281.310 C 340.210 281.494,340.106 281.390,340.290 280.910 C 340.474 280.430,340.370 280.326,339.890 280.510 C 339.410 280.694,339.306 280.590,339.490 280.110 C 339.674 279.630,339.570 279.526,339.090 279.710 C 338.610 279.894,338.506 279.790,338.690 279.310 C 338.874 278.830,338.770 278.726,338.290 278.910 C 337.810 279.094,337.706 278.990,337.890 278.510 C 338.074 278.030,337.970 277.926,337.490 278.110 C 337.010 278.294,336.906 278.190,337.090 277.710 C 337.274 277.230,337.170 277.126,336.690 277.310 C 336.210 277.494,336.106 277.390,336.290 276.910 C 336.474 276.430,336.370 276.326,335.890 276.510 C 335.410 276.694,335.306 276.590,335.490 276.110 C 335.674 275.630,335.570 275.526,335.090 275.710 C 334.610 275.894,334.506 275.790,334.690 275.310 C 334.874 274.830,334.770 274.726,334.290 274.910 C 333.810 275.094,333.706 274.990,333.890 274.510 C 334.074 274.030,333.970 273.926,333.490 274.110 C 333.010 274.294,332.906 274.190,333.090 273.710 C 333.274 273.230,333.170 273.126,332.690 273.310 C 332.210 273.494,332.106 273.390,332.290 272.910 C 332.474 272.430,332.370 272.326,331.890 272.510 C 331.410 272.694,331.306 272.590,331.490 272.110 C 331.674 271.630,331.570 271.526,331.090 271.710 C 330.610 271.894,330.506 271.790,330.690 271.310 C 330.874 270.830,330.770 270.726,330.290 270.910 C 329.810 271.094,329.706 270.990,329.890 270.510 C 330.074 270.030,329.970 269.926,329.490 270.110 C 329.010 270.294,328.906 270.190,329.090 269.710 C 329.274 269.230,329.170 269.126,328.690 269.310 C 328.210 269.494,328.106 269.390,328.290 268.910 C 328.474 268.430,328.370 268.326,327.890 268.510 C 327.410 268.694,327.306 268.590,327.490 268.110 C 327.674 267.630,327.570 267.526,327.090 267.710 C 326.610 267.894,326.506 267.790,326.690 267.310 C 326.874 266.830,326.770 266.726,326.290 266.910 C 325.810 267.094,325.706 266.990,325.890 266.510 C 326.074 266.030,325.970 265.926,325.490 266.110 C 325.010 266.294,324.906 266.190,325.090 265.710 C 325.274 265.230,325.170 265.126,324.690 265.310 C 324.210 265.494,324.106 265.390,324.290 264.910 C 324.474 264.430,324.370 264.326,323.890 264.510 C 323.410 264.694,323.306 264.590,323.490 264.110 C 323.674 263.630,323.570 263.526,323.090 263.710 C 322.610 263.894,322.506 263.790,322.690 263.310 C 322.874 262.830,322.770 262.726,322.290 262.910 C 321.810 263.094,321.706 262.990,321.890 262.510 C 322.074 262.030,321.970 261.926,321.490 262.110 C 321.010 262.294,320.906 262.190,321.090 261.710 C 321.274 261.230,321.170 261.126,320.690 261.310 C 320.210 261.494,320.106 261.390,320.290 260.910 C 320.474 260.430,320.370 260.326,319.890 260.510 C 319.410 260.694,319.306 260.590,319.490 260.110 C 319.674 259.630,319.570 259.526,319.090 259.710 C 318.610 259.894,318.506 259.790,318.690 259.310 C 318.874 258.830,318.770 258.726,318.290 258.910 C 317.810 259.094,317.706 258.990,317.890 258.510 C 318.074 258.030,317.970 257.926,317.490 258.110 C 317.010 258.294,316.906 258.190,317.090 257.710 C 317.274 257.230,317.170 257.126,316.690 257.310 C 316.210 257.494,316.106 257.390,316.290 256.910 C 316.474 256.430,316.370 256.326,315.890 256.510 C 315.410 256.694,315.306 256.590,315.490 256.110 C 315.674 255.630,315.570 255.526,315.090 255.710 C 314.610 255.894,314.506 255.790,314.690 255.310 C 314.874 254.830,314.770 254.726,314.290 254.910 C 313.810 255.094,313.706 254.990,313.890 254.510 C 314.074 254.030,313.970 253.926,313.490 254.110 C 313.010 254.294,312.906 254.190,313.090 253.710 C 313.274 253.230,313.170 253.126,312.690 253.310 C 312.210 253.494,312.106 253.390,312.290 252.910 C 312.474 252.430,312.370 252.326,311.890 252.510 C 311.410 252.694,311.306 252.590,311.490 252.110 C 311.674 251.630,311.570 251.526,311.090 251.710 C 310.610 251.894,310.506 251.790,310.690 251.310 C 310.874 250.830,310.770 250.726,310.290 250.910 C 309.810 251.094,309.706 250.990,309.890 250.510 C 310.074 250.030,309.970 249.926,309.490 250.110 C 309.010 250.294,308.906 250.190,309.090 249.710 C 309.274 249.230,309.170 249.126,308.690 249.310 C 308.210 249.494,308.106 249.390,308.290 248.910 C 308.474 248.430,308.370 248.326,307.890 248.510 C 307.410 248.694,307.306 248.590,307.490 248.110 C 307.674 247.630,307.570 247.526,307.090 247.710 C 306.610 247.894,306.506 247.790,306.690 247.310 C 306.874 246.830,306.770 246.726,306.290 246.910 C 305.810 247.094,305.706 246.990,305.890 246.510 C 306.074 246.030,305.970 245.926,305.490 246.110 C 305.010 246.294,304.906 246.190,305.090 245.710 C 305.274 245.230,305.170 245.126,304.690 245.310 C 304.210 245.494,304.106 245.390,304.290 244.910 C 304.474 244.430,304.370 244.326,303.890 244.510 C 303.410 244.694,303.306 244.590,303.490 244.110 C 303.674 243.630,303.570 243.526,303.090 243.710 C 302.610 243.894,302.506 243.790,302.690 243.310 C 302.874 242.830,302.770 242.726,302.290 242.910 C 301.810 243.094,301.706 242.990,301.890 242.510 C 302.074 242.030,301.970 241.926,301.490 242.110 C 301.010 242.294,300.906 242.190,301.090 241.710 C 301.274 241.230,301.170 241.126,300.690 241.310 C 300.210 241.494,300.106 241.390,300.290 240.910 C 300.474 240.430,300.370 240.326,299.890 240.510 C 299.410 240.694,299.306 240.590,299.490 240.110 C 299.674 239.630,299.570 239.526,299.090 239.710 C 298.610 239.894,298.506 239.790,298.690 239.310 C 298.874 238.830,298.770 238.726,298.290 238.910 C 297.810 239.094,297.706 238.990,297.890 238.510 C 298.074 238.030,297.970 237.926,297.490 238.110 C 297.010 238.294,296.906 238.190,297.090 237.710 C 297.274 237.230,297.170 237.126,296.690 237.310 C 296.210 237.494,296.106 237.390,296.290 236.910 C 296.474 236.430,296.370 236.326,295.890 236.510 C 295.410 236.694,295.306 236.590,295.490 236.110 C 295.674 235.630,295.570 235.526,295.090 235.710 C 294.610 235.894,294.506 235.790,294.690 235.310 C 294.874 234.830,294.770 234.726,294.290 234.910 C 293.810 235.094,293.706 234.990,293.890 234.510 C 294.074 234.030,293.970 233.926,293.490 234.110 C 293.010 234.294,292.906 234.190,293.090 233.710 C 293.274 233.230,293.170 233.126,292.690 233.310 C 292.210 233.494,292.106 233.390,292.290 232.910 C 292.474 232.430,292.370 232.326,291.890 232.510 C 291.410 232.694,291.306 232.590,291.490 232.110 C 291.674 231.630,291.570 231.526,291.090 231.710 C 290.610 231.894,290.506 231.790,290.690 231.310 C 290.874 230.830,290.770 230.726,290.290 230.910 C 289.810 231.094,289.706 230.990,289.890 230.510 C 290.074 230.030,289.970 229.926,289.490 230.110 C 289.010 230.294,288.906 230.190,289.090 229.710 C 289.274 229.230,289.170 229.126,288.690 229.310 C 288.210 229.494,288.106 229.390,288.290 228.910 C 288.474 228.430,288.370 228.326,287.890 228.510 C 287.410 228.694,287.306 228.590,287.490 228.110 C 287.674 227.630,287.570 227.526,287.090 227.710 C 286.610 227.894,286.506 227.790,286.690 227.310 C 286.874 226.830,286.770 226.726,286.290 226.910 C 285.810 227.094,285.706 226.990,285.890 226.510 C 286.074 226.030,285.970 225.926,285.490 226.110 C 285.010 226.294,284.906 226.190,285.090 225.710 C 285.274 225.230,285.170 225.126,284.690 225.310 C 284.210 225.494,284.106 225.390,284.290 224.910 C 284.474 224.430,284.370 224.326,283.890 224.510 C 283.410 224.694,283.306 224.590,283.490 224.110 C 283.674 223.630,283.570 223.526,283.090 223.710 C 282.610 223.894,282.506 223.790,282.690 223.310 C 282.874 222.830,282.770 222.726,282.290 222.910 C 281.810 223.094,281.706 222.990,281.890 222.510 C 282.074 222.030,281.970 221.926,281.490 222.110 C 281.010 222.294,280.906 222.190,281.090 221.710 C 281.274 221.230,281.170 221.126,280.690 221.310 C 280.210 221.494,280.106 221.390,280.290 220.910 C 280.474 220.430,280.370 220.326,279.890 220.510 C 279.410 220.694,279.306 220.590,279.490 220.110 C 279.674 219.630,279.570 219.526,279.090 219.710 C 278.610 219.894,278.506 219.790,278.690 219.310 C 278.874 218.830,278.770 218.726,278.290 218.910 C 277.810 219.094,277.706 218.990,277.890 218.510 C 278.074 218.030,277.970 217.926,277.490 218.110 C 277.010 218.294,276.906 218.190,277.090 217.710 C 277.274 217.230,277.170 217.126,276.690 217.310 C 276.210 217.494,276.106 217.390,276.290 216.910 C 276.474 216.430,276.370 216.326,275.890 216.510 C 275.410 216.694,275.306 216.590,275.490 216.110 C 275.674 215.630,275.570 215.526,275.090 215.710 C 274.610 215.894,274.506 215.790,274.690 215.310 C 274.874 214.830,274.770 214.726,274.290 214.910 C 273.810 215.094,273.706 214.990,273.890 214.510 C 274.074 214.030,273.970 213.926,273.490 214.110 C 273.010 214.294,272.906 214.190,273.090 213.710 C 273.274 213.230,273.170 213.126,272.690 213.310 C 272.210 213.494,272.106 213.390,272.290 212.910 C 272.474 212.430,272.370 212.326,271.890 212.510 C 271.410 212.694,271.306 212.590,271.490 212.110 C 271.674 211.630,271.570 211.526,271.090 211.710 C 270.610 211.894,270.506 211.790,270.690 211.310 C 270.874 210.830,270.770 210.726,270.290 210.910 C 269.810 211.094,269.706 210.990,269.890 210.510 C 270.074 210.030,269.970 209.926,269.490 210.110 C 269.010 210.294,268.906 210.190,269.090 209.710 C 269.274 209.230,269.170 209.126,268.690 209.310 C 268.210 209.494,268.106 209.390,268.290 208.910 C 268.474 208.430,268.370 208.326,267.890 208.510 C 267.410 208.694,267.306 208.590,267.490 208.110 C 267.674 207.630,267.570 207.526,267.090 207.710 C 266.610 207.894,266.506 207.790,266.690 207.310 C 266.874 206.830,266.770 206.726,266.290 206.910 C 265.810 207.094,265.706 206.990,265.890 206.510 C 266.074 206.030,265.970 205.926,265.490 206.110 C 265.010 206.294,264.906 206.190,265.090 205.710 C 265.274 205.230,265.170 205.126,264.690 205.310 C 264.210 205.494,264.106 205.390,264.290 204.910 C 264.474 204.430,264.370 204.326,263.890 204.510 C 263.410 204.694,263.306 204.590,263.490 204.110 C 263.674 203.630,263.570 203.526,263.090 203.710 C 262.610 203.894,262.506 203.790,262.690 203.310 C 262.874 202.830,262.770 202.726,262.290 202.910 C 261.810 203.094,261.706 202.990,261.890 202.510 C 262.074 202.030,261.970 201.926,261.490 202.110 C 261.010 202.294,260.906 202.190,261.090 201.710 C 261.274 201.230,261.170 201.126,260.690 201.310 C 260.210 201.494,260.106 201.390,260.290 200.910 C 260.466 200.452,260.367 200.327,259.955 200.485 C 259.579 200.630,259.371 200.457,259.371 200.000 C 259.371 199.543,259.579 199.370,259.955 199.515 C 260.367 199.673,260.466 199.548,260.290 199.090 C 260.106 198.610,260.210 198.506,260.690 198.690 C 261.170 198.874,261.274 198.770,261.090 198.290 C 260.906 197.810,261.010 197.706,261.490 197.890 C 261.970 198.074,262.074 197.970,261.890 197.490 C 261.706 197.010,261.810 196.906,262.290 197.090 C 262.770 197.274,262.874 197.170,262.690 196.690 C 262.506 196.210,262.610 196.106,263.090 196.290 C 263.570 196.474,263.674 196.370,263.490 195.890 C 263.306 195.410,263.410 195.306,263.890 195.490 C 264.370 195.674,264.474 195.570,264.290 195.090 C 264.106 194.610,264.210 194.506,264.690 194.690 C 265.170 194.874,265.274 194.770,265.090 194.290 C 264.906 193.810,265.010 193.706,265.490 193.890 C 265.970 194.074,266.074 193.970,265.890 193.490 C 265.706 193.010,265.810 192.906,266.290 193.090 C 266.770 193.274,266.874 193.170,266.690 192.690 C 266.506 192.210,266.610 192.106,267.090 192.290 C 267.570 192.474,267.674 192.370,267.490 191.890 C 267.306 191.410,267.410 191.306,267.890 191.490 C 268.370 191.674,268.474 191.570,268.290 191.090 C 268.106 190.610,268.210 190.506,268.690 190.690 C 269.170 190.874,269.274 190.770,269.090 190.290 C 268.906 189.810,269.010 189.706,269.490 189.890 C 269.970 190.074,270.074 189.970,269.890 189.490 C 269.706 189.010,269.810 188.906,270.290 189.090 C 270.770 189.274,270.874 189.170,270.690 188.690 C 270.506 188.210,270.610 188.106,271.090 188.290 C 271.570 188.474,271.674 188.370,271.490 187.890 C 271.306 187.410,271.410 187.306,271.890 187.490 C 272.370 187.674,272.474 187.570,272.290 187.090 C 272.106 186.610,272.210 186.506,272.690 186.690 C 273.170 186.874,273.274 186.770,273.090 186.290 C 272.906 185.810,273.010 185.706,273.490 185.890 C 273.970 186.074,274.074 185.970,273.890 185.490 C 273.706 185.010,273.810 184.906,274.290 185.090 C 274.770 185.274,274.874 185.170,274.690 184.690 C 274.506 184.210,274.610 184.106,275.090 184.290 C 275.570 184.474,275.674 184.370,275.490 183.890 C 275.306 183.410,275.410 183.306,275.890 183.490 C 276.370 183.674,276.474 183.570,276.290 183.090 C 276.106 182.610,276.210 182.506,276.690 182.690 C 277.170 182.874,277.274 182.770,277.090 182.290 C 276.906 181.810,277.010 181.706,277.490 181.890 C 277.970 182.074,278.074 181.970,277.890 181.490 C 277.706 181.010,277.810 180.906,278.290 181.090 C 278.770 181.274,278.874 181.170,278.690 180.690 C 278.506 180.210,278.610 180.106,279.090 180.290 C 279.570 180.474,279.674 180.370,279.490 179.890 C 279.306 179.410,279.410 179.306,279.890 179.490 C 280.370 179.674,280.474 179.570,280.290 179.090 C 280.106 178.610,280.210 178.506,280.690 178.690 C 281.170 178.874,281.274 178.770,281.090 178.290 C 280.906 177.810,281.010 177.706,281.490 177.890 C 281.970 178.074,282.074 177.970,281.890 177.490 C 281.706 177.010,281.810 176.906,282.290 177.090 C 282.770 177.274,282.874 177.170,282.690 176.690 C 282.506 176.210,282.610 176.106,283.090 176.290 C 283.570 176.474,283.674 176.370,283.490 175.890 C 283.306 175.410,283.410 175.306,283.890 175.490 C 284.370 175.674,284.474 175.570,284.290 175.090 C 284.106 174.610,284.210 174.506,284.690 174.690 C 285.170 174.874,285.274 174.770,285.090 174.290 C 284.906 173.810,285.010 173.706,285.490 173.890 C 285.970 174.074,286.074 173.970,285.890 173.490 C 285.706 173.010,285.810 172.906,286.290 173.090 C 286.770 173.274,286.874 173.170,286.690 172.690 C 286.506 172.210,286.610 172.106,287.090 172.290 C 287.570 172.474,287.674 172.370,287.490 171.890 C 287.306 171.410,287.410 171.306,287.890 171.490 C 288.370 171.674,288.474 171.570,288.290 171.090 C 288.106 170.610,288.210 170.506,288.690 170.690 C 289.170 170.874,289.274 170.770,289.090 170.290 C 288.906 169.810,289.010 169.706,289.490 169.890 C 289.970 170.074,290.074 169.970,289.890 169.490 C 289.706 169.010,289.810 168.906,290.290 169.090 C 290.770 169.274,290.874 169.170,290.690 168.690 C 290.506 168.210,290.610 168.106,291.090 168.290 C 291.570 168.474,291.674 168.370,291.490 167.890 C 291.306 167.410,291.410 167.306,291.890 167.490 C 292.370 167.674,292.474 167.570,292.290 167.090 C 292.106 166.610,292.210 166.506,292.690 166.690 C 293.170 166.874,293.274 166.770,293.090 166.290 C 292.906 165.810,293.010 165.706,293.490 165.890 C 293.970 166.074,294.074 165.970,293.890 165.490 C 293.706 165.010,293.810 164.906,294.290 165.090 C 294.770 165.274,294.874 165.170,294.690 164.690 C 294.506 164.210,294.610 164.106,295.090 164.290 C 295.570 164.474,295.674 164.370,295.490 163.890 C 295.306 163.410,295.410 163.306,295.890 163.490 C 296.370 163.674,296.474 163.570,296.290 163.090 C 296.106 162.610,296.210 162.506,296.690 162.690 C 297.170 162.874,297.274 162.770,297.090 162.290 C 296.906 161.810,297.010 161.706,297.490 161.890 C 297.970 162.074,298.074 161.970,297.890 161.490 C 297.706 161.010,297.810 160.906,298.290 161.090 C 298.770 161.274,298.874 161.170,298.690 160.690 C 298.506 160.210,298.610 160.106,299.090 160.290 C 299.570 160.474,299.674 160.370,299.490 159.890 C 299.306 159.410,299.410 159.306,299.890 159.490 C 300.370 159.674,300.474 159.570,300.290 159.090 C 300.106 158.610,300.210 158.506,300.690 158.690 C 301.170 158.874,301.274 158.770,301.090 158.290 C 300.906 157.810,301.010 157.706,301.490 157.890 C 301.970 158.074,302.074 157.970,301.890 157.490 C 301.706 157.010,301.810 156.906,302.290 157.090 C 302.770 157.274,302.874 157.170,302.690 156.690 C 302.506 156.210,302.610 156.106,303.090 156.290 C 303.570 156.474,303.674 156.370,303.490 155.890 C 303.306 155.410,303.410 155.306,303.890 155.490 C 304.370 155.674,304.474 155.570,304.290 155.090 C 304.106 154.610,304.210 154.506,304.690 154.690 C 305.170 154.874,305.274 154.770,305.090 154.290 C 304.906 153.810,305.010 153.706,305.490 153.890 C 305.970 154.074,306.074 153.970,305.890 153.490 C 305.706 153.010,305.810 152.906,306.290 153.090 C 306.770 153.274,306.874 153.170,306.690 152.690 C 306.506 152.210,306.610 152.106,307.090 152.290 C 307.570 152.474,307.674 152.370,307.490 151.890 C 307.306 151.410,307.410 151.306,307.890 151.490 C 308.370 151.674,308.474 151.570,308.290 151.090 C 308.106 150.610,308.210 150.506,308.690 150.690 C 309.170 150.874,309.274 150.770,309.090 150.290 C 308.906 149.810,309.010 149.706,309.490 149.890 C 309.970 150.074,310.074 149.970,309.890 149.490 C 309.706 149.010,309.810 148.906,310.290 149.090 C 310.770 149.274,310.874 149.170,310.690 148.690 C 310.506 148.210,310.610 148.106,311.090 148.290 C 311.570 148.474,311.674 148.370,311.490 147.890 C 311.306 147.410,311.410 147.306,311.890 147.490 C 312.370 147.674,312.474 147.570,312.290 147.090 C 312.106 146.610,312.210 146.506,312.690 146.690 C 313.170 146.874,313.274 146.770,313.090 146.290 C 312.906 145.810,313.010 145.706,313.490 145.890 C 313.970 146.074,314.074 145.970,313.890 145.490 C 313.706 145.010,313.810 144.906,314.290 145.090 C 314.770 145.274,314.874 145.170,314.690 144.690 C 314.506 144.210,314.610 144.106,315.090 144.290 C 315.570 144.474,315.674 144.370,315.490 143.890 C 315.306 143.410,315.410 143.306,315.890 143.490 C 316.370 143.674,316.474 143.570,316.290 143.090 C 316.106 142.610,316.210 142.506,316.690 142.690 C 317.170 142.874,317.274 142.770,317.090 142.290 C 316.906 141.810,317.010 141.706,317.490 141.890 C 317.970 142.074,318.074 141.970,317.890 141.490 C 317.706 141.010,317.810 140.906,318.290 141.090 C 318.770 141.274,318.874 141.170,318.690 140.690 C 318.506 140.210,318.610 140.106,319.090 140.290 C 319.570 140.474,319.674 140.370,319.490 139.890 C 319.306 139.410,319.410 139.306,319.890 139.490 C 320.370 139.674,320.474 139.570,320.290 139.090 C 320.106 138.610,320.210 138.506,320.690 138.690 C 321.170 138.874,321.274 138.770,321.090 138.290 C 320.906 137.810,321.010 137.706,321.490 137.890 C 321.970 138.074,322.074 137.970,321.890 137.490 C 321.706 137.010,321.810 136.906,322.290 137.090 C 322.770 137.274,322.874 137.170,322.690 136.690 C 322.506 136.210,322.610 136.106,323.090 136.290 C 323.570 136.474,323.674 136.370,323.490 135.890 C 323.306 135.410,323.410 135.306,323.890 135.490 C 324.370 135.674,324.474 135.570,324.290 135.090 C 324.106 134.610,324.210 134.506,324.690 134.690 C 325.170 134.874,325.274 134.770,325.090 134.290 C 324.906 133.810,325.010 133.706,325.490 133.890 C 325.970 134.074,326.074 133.970,325.890 133.490 C 325.706 133.010,325.810 132.906,326.290 133.090 C 326.770 133.274,326.874 133.170,326.690 132.690 C 326.506 132.210,326.610 132.106,327.090 132.290 C 327.570 132.474,327.674 132.370,327.490 131.890 C 327.306 131.410,327.410 131.306,327.890 131.490 C 328.370 131.674,328.474 131.570,328.290 131.090 C 328.106 130.610,328.210 130.506,328.690 130.690 C 329.170 130.874,329.274 130.770,329.090 130.290 C 328.906 129.810,329.010 129.706,329.490 129.890 C 329.970 130.074,330.074 129.970,329.890 129.490 C 329.706 129.010,329.810 128.906,330.290 129.090 C 330.770 129.274,330.874 129.170,330.690 128.690 C 330.506 128.210,330.610 128.106,331.090 128.290 C 331.570 128.474,331.674 128.370,331.490 127.890 C 331.306 127.410,331.410 127.306,331.890 127.490 C 332.370 127.674,332.474 127.570,332.290 127.090 C 332.106 126.610,332.210 126.506,332.690 126.690 C 333.170 126.874,333.274 126.770,333.090 126.290 C 332.906 125.810,333.010 125.706,333.490 125.890 C 333.970 126.074,334.074 125.970,333.890 125.490 C 333.706 125.010,333.810 124.906,334.290 125.090 C 334.770 125.274,334.874 125.170,334.690 124.690 C 334.506 124.210,334.610 124.106,335.090 124.290 C 335.570 124.474,335.674 124.370,335.490 123.890 C 335.306 123.410,335.410 123.306,335.890 123.490 C 336.370 123.674,336.474 123.570,336.290 123.090 C 336.106 122.610,336.210 122.506,336.690 122.690 C 337.170 122.874,337.274 122.770,337.090 122.290 C 336.906 121.810,337.010 121.706,337.490 121.890 C 337.970 122.074,338.074 121.970,337.890 121.490 C 337.706 121.010,337.810 120.906,338.290 121.090 C 338.770 121.274,338.874 121.170,338.690 120.690 C 338.506 120.210,338.610 120.106,339.090 120.290 C 339.570 120.474,339.674 120.370,339.490 119.890 C 339.306 119.410,339.410 119.306,339.890 119.490 C 340.370 119.674,340.474 119.570,340.290 119.090 C 340.106 118.610,340.210 118.506,340.690 118.690 C 341.170 118.874,341.274 118.770,341.090 118.290 C 340.906 117.810,341.010 117.706,341.490 117.890 C 341.970 118.074,342.074 117.970,341.890 117.490 C 341.706 117.010,341.810 116.906,342.290 117.090 C 342.770 117.274,342.874 117.170,342.690 116.690 C 342.506 116.210,342.610 116.106,343.090 116.290 C 343.570 116.474,343.674 116.370,343.490 115.890 C 343.306 115.410,343.410 115.306,343.890 115.490 C 344.370 115.674,344.474 115.570,344.290 115.090 C 344.106 114.610,344.210 114.506,344.690 114.690 C 345.170 114.874,345.274 114.770,345.090 114.290 C 344.906 113.810,345.010 113.706,345.490 113.890 C 345.970 114.074,346.074 113.970,345.890 113.490 C 345.706 113.010,345.810 112.906,346.290 113.090 C 346.770 113.274,346.874 113.170,346.690 112.690 C 346.506 112.210,346.610 112.106,347.090 112.290 C 347.570 112.474,347.674 112.370,347.490 111.890 C 347.306 111.410,347.410 111.306,347.890 111.490 C 348.370 111.674,348.474 111.570,348.290 111.090 C 348.106 110.610,348.210 110.506,348.690 110.690 C 349.170 110.874,349.274 110.770,349.090 110.290 C 348.906 109.810,349.010 109.706,349.490 109.890 C 349.970 110.074,350.074 109.970,349.890 109.490 C 349.706 109.010,349.810 108.906,350.290 109.090 C 350.770 109.274,350.874 109.170,350.690 108.690 C 350.506 108.210,350.610 108.106,351.090 108.290 C 351.570 108.474,351.674 108.370,351.490 107.890 C 351.306 107.410,351.410 107.306,351.890 107.490 C 352.370 107.674,352.474 107.570,352.290 107.090 C 352.106 106.610,352.210 106.506,352.690 106.690 C 353.170 106.874,353.274 106.770,353.090 106.290 C 352.906 105.810,353.010 105.706,353.490 105.890 C 353.970 106.074,354.074 105.970,353.890 105.490 C 353.706 105.010,353.810 104.906,354.290 105.090 C 354.770 105.274,354.874 105.170,354.690 104.690 C 354.506 104.210,354.610 104.106,355.090 104.290 C 355.570 104.474,355.674 104.370,355.490 103.890 C 355.306 103.410,355.410 103.306,355.890 103.490 C 356.370 103.674,356.474 103.570,356.290 103.090 C 356.106 102.610,356.210 102.506,356.690 102.690 C 357.170 102.874,357.274 102.770,357.090 102.290 C 356.906 101.810,357.010 101.706,357.490 101.890 C 357.970 102.074,358.074 101.970,357.890 101.490 C 357.706 101.010,357.810 100.906,358.290 101.090 C 358.770 101.274,358.874 101.170,358.690 100.690 C 358.506 100.210,358.610 100.106,359.090 100.290 C 359.570 100.474,359.674 100.370,359.490 99.890 C 359.306 99.410,359.410 99.306,359.890 99.490 C 360.370 99.674,360.474 99.570,360.290 99.090 C 360.106 98.610,360.210 98.506,360.690 98.690 C 361.170 98.874,361.274 98.770,361.090 98.290 C 360.906 97.810,361.010 97.706,361.490 97.890 C 361.970 98.074,362.074 97.970,361.890 97.490 C 361.706 97.010,361.810 96.906,362.290 97.090 C 362.770 97.274,362.874 97.170,362.690 96.690 C 362.506 96.210,362.610 96.106,363.090 96.290 C 363.570 96.474,363.674 96.370,363.490 95.890 C 363.306 95.410,363.410 95.306,363.890 95.490 C 364.370 95.674,364.474 95.570,364.290 95.090 C 364.106 94.610,364.210 94.506,364.690 94.690 C 365.170 94.874,365.274 94.770,365.090 94.290 C 364.906 93.810,365.010 93.706,365.490 93.890 C 365.970 94.074,366.074 93.970,365.890 93.490 C 365.706 93.010,365.810 92.906,366.290 93.090 C 366.770 93.274,366.874 93.170,366.690 92.690 C 366.506 92.210,366.610 92.106,367.090 92.290 C 367.570 92.474,367.674 92.370,367.490 91.890 C 367.306 91.410,367.410 91.306,367.890 91.490 C 368.370 91.674,368.474 91.570,368.290 91.090 C 368.106 90.610,368.210 90.506,368.690 90.690 C 369.170 90.874,369.274 90.770,369.090 90.290 C 368.906 89.810,369.010 89.706,369.490 89.890 C 369.970 90.074,370.074 89.970,369.890 89.490 C 369.706 89.010,369.810 88.906,370.290 89.090 C 370.770 89.274,370.874 89.170,370.690 88.690 C 370.506 88.210,370.610 88.106,371.090 88.290 C 371.570 88.474,371.674 88.370,371.490 87.890 C 371.306 87.410,371.410 87.306,371.890 87.490 C 372.370 87.674,372.474 87.570,372.290 87.090 C 372.106 86.610,372.210 86.506,372.690 86.690 C 373.170 86.874,373.274 86.770,373.090 86.290 C 372.906 85.810,373.010 85.706,373.490 85.890 C 373.970 86.074,374.074 85.970,373.890 85.490 C 373.706 85.010,373.810 84.906,374.290 85.090 C 374.770 85.274,374.874 85.170,374.690 84.690 C 374.506 84.210,374.610 84.106,375.090 84.290 C 375.570 84.474,375.674 84.370,375.490 83.890 C 375.306 83.410,375.410 83.306,375.890 83.490 C 376.370 83.674,376.474 83.570,376.290 83.090 C 376.106 82.610,376.210 82.506,376.690 82.690 C 377.170 82.874,377.274 82.770,377.090 82.290 C 376.906 81.810,377.010 81.706,377.490 81.890 C 377.970 82.074,378.074 81.970,377.890 81.490 C 377.706 81.010,377.810 80.906,378.290 81.090 C 378.770 81.274,378.874 81.170,378.690 80.690 C 378.506 80.210,378.610 80.106,379.090 80.290 C 379.570 80.474,379.674 80.370,379.490 79.890 C 379.306 79.410,379.410 79.306,379.890 79.490 C 380.370 79.674,380.474 79.570,380.290 79.090 C 380.106 78.610,380.210 78.506,380.690 78.690 C 381.170 78.874,381.274 78.770,381.090 78.290 C 380.906 77.810,381.010 77.706,381.490 77.890 C 381.970 78.074,382.074 77.970,381.890 77.490 C 381.706 77.010,381.810 76.906,382.290 77.090 C 382.770 77.274,382.874 77.170,382.690 76.690 C 382.506 76.210,382.610 76.106,383.090 76.290 C 383.570 76.474,383.674 76.370,383.490 75.890 C 383.306 75.410,383.410 75.306,383.890 75.490 C 384.370 75.674,384.474 75.570,384.290 75.090 C 384.106 74.610,384.210 74.506,384.690 74.690 C 385.170 74.874,385.274 74.770,385.090 74.290 C 384.906 73.810,385.010 73.706,385.490 73.890 C 385.970 74.074,386.074 73.970,385.890 73.490 C 385.706 73.010,385.810 72.906,386.290 73.090 C 386.770 73.274,386.874 73.170,386.690 72.690 C 386.506 72.210,386.610 72.106,387.090 72.290 C 387.570 72.474,387.674 72.370,387.490 71.890 C 387.306 71.410,387.410 71.306,387.890 71.490 C 388.370 71.674,388.474 71.570,388.290 71.090 C 388.106 70.610,388.210 70.506,388.690 70.690 C 389.170 70.874,389.274 70.770,389.090 70.290 C 388.906 69.810,389.010 69.706,389.490 69.890 C 389.970 70.074,390.074 69.970,389.890 69.490 C 389.714 69.033,389.812 68.907,390.220 69.063 C 390.932 69.336,390.977 68.751,390.300 68.021 C 390.025 67.725,389.986 67.586,390.214 67.712 C 390.783 68.027,393.241 65.816,393.070 65.144 C 392.994 64.845,393.007 64.735,393.099 64.900 C 393.466 65.557,394.038 65.149,393.800 64.400 C 393.615 63.817,393.728 63.600,394.216 63.600 C 394.636 63.600,394.803 63.384,394.663 63.020 C 394.515 62.633,394.633 62.515,395.020 62.663 C 395.675 62.914,395.798 62.358,395.217 61.777 C 394.976 61.536,394.973 61.172,395.211 60.797 C 395.462 60.398,395.590 60.366,395.594 60.700 C 395.597 60.975,395.780 61.200,396.000 61.200 C 396.220 61.200,396.400 60.840,396.400 60.400 C 396.400 59.960,396.599 59.600,396.843 59.600 C 397.086 59.600,397.184 59.335,397.059 59.011 C 396.935 58.686,397.124 58.259,397.478 58.060 C 397.863 57.845,398.023 57.437,397.874 57.050 C 397.709 56.618,397.838 56.400,398.259 56.400 C 398.725 56.400,398.841 56.126,398.696 55.368 C 398.568 54.699,398.700 54.260,399.071 54.117 C 399.386 53.996,399.607 53.516,399.562 53.049 C 399.518 52.582,399.606 51.913,399.759 51.563 C 399.912 51.212,399.958 45.992,399.861 39.963 C 399.634 25.916,399.678 26.800,399.206 26.800 C 398.983 26.800,398.800 26.260,398.800 25.600 C 398.800 24.940,398.620 24.400,398.400 24.400 C 398.180 24.400,398.000 24.021,398.000 23.557 C 398.000 22.969,397.817 22.785,397.395 22.947 C 396.927 23.126,396.843 22.967,397.025 22.244 C 397.185 21.607,397.061 21.232,396.636 21.069 C 396.275 20.931,396.112 20.572,396.250 20.215 C 396.530 19.485,395.760 19.373,395.460 20.100 C 395.347 20.375,395.360 19.985,395.490 19.233 C 395.688 18.088,395.622 17.906,395.084 18.112 C 394.654 18.277,394.508 18.184,394.643 17.831 C 394.755 17.541,394.554 17.191,394.198 17.054 C 393.841 16.918,393.654 16.635,393.783 16.427 C 394.073 15.959,385.617 7.542,385.148 7.832 C 384.962 7.947,384.927 7.733,385.072 7.356 C 385.283 6.806,385.164 6.716,384.467 6.898 C 383.990 7.023,383.600 6.949,383.600 6.734 C 383.600 5.928,382.352 5.030,382.007 5.588 C 381.773 5.967,381.612 5.869,381.408 5.224 C 381.232 4.672,380.911 4.425,380.549 4.564 C 380.230 4.687,379.867 4.520,379.742 4.193 C 379.617 3.867,379.174 3.600,378.757 3.600 C 378.341 3.600,378.000 3.420,378.000 3.200 C 378.000 2.980,377.640 2.800,377.200 2.800 C 376.760 2.800,376.400 2.601,376.400 2.357 C 376.400 2.114,376.135 2.016,375.811 2.141 C 375.486 2.265,375.059 2.077,374.861 1.724 C 374.631 1.312,374.195 1.160,373.650 1.303 C 373.098 1.447,372.668 1.292,372.427 0.863 C 371.869 -0.134,348.140 -0.150,347.582 0.846 C 347.343 1.273,346.877 1.427,346.210 1.300 C 345.488 1.162,345.200 1.280,345.200 1.716 C 345.200 2.128,344.941 2.257,344.400 2.116 C 343.953 1.999,343.600 2.104,343.600 2.353 C 343.600 2.599,343.240 2.800,342.800 2.800 C 342.360 2.800,342.000 2.980,342.000 3.200 C 342.000 3.420,341.659 3.600,341.243 3.600 C 340.826 3.600,340.383 3.867,340.258 4.193 C 340.133 4.520,339.770 4.687,339.451 4.564 C 339.089 4.425,338.768 4.672,338.592 5.224 C 338.388 5.869,338.227 5.967,337.993 5.588 C 337.648 5.030,336.400 5.928,336.400 6.734 C 336.400 6.949,336.010 7.023,335.533 6.898 C 334.836 6.716,334.717 6.806,334.928 7.356 C 335.073 7.733,335.046 7.952,334.869 7.842 C 334.471 7.597,200.963 141.094,201.095 141.605 C 201.148 141.806,200.934 141.873,200.620 141.753 C 200.292 141.626,200.154 141.264,200.295 140.897 C 200.474 140.431,200.366 140.327,199.890 140.510 C 199.410 140.694,199.306 140.590,199.490 140.110 C 199.674 139.630,199.570 139.526,199.090 139.710 C 198.610 139.894,198.506 139.790,198.690 139.310 C 198.874 138.830,198.770 138.726,198.290 138.910 C 197.810 139.094,197.706 138.990,197.890 138.510 C 198.074 138.030,197.970 137.926,197.490 138.110 C 197.010 138.294,196.906 138.190,197.090 137.710 C 197.274 137.230,197.170 137.126,196.690 137.310 C 196.210 137.494,196.106 137.390,196.290 136.910 C 196.474 136.430,196.370 136.326,195.890 136.510 C 195.410 136.694,195.306 136.590,195.490 136.110 C 195.674 135.630,195.570 135.526,195.090 135.710 C 194.610 135.894,194.506 135.790,194.690 135.310 C 194.874 134.830,194.770 134.726,194.290 134.910 C 193.810 135.094,193.706 134.990,193.890 134.510 C 194.074 134.030,193.970 133.926,193.490 134.110 C 193.010 134.294,192.906 134.190,193.090 133.710 C 193.274 133.230,193.170 133.126,192.690 133.310 C 192.210 133.494,192.106 133.390,192.290 132.910 C 192.474 132.430,192.370 132.326,191.890 132.510 C 191.410 132.694,191.306 132.590,191.490 132.110 C 191.674 131.630,191.570 131.526,191.090 131.710 C 190.610 131.894,190.506 131.790,190.690 131.310 C 190.874 130.830,190.770 130.726,190.290 130.910 C 189.810 131.094,189.706 130.990,189.890 130.510 C 190.074 130.030,189.970 129.926,189.490 130.110 C 189.010 130.294,188.906 130.190,189.090 129.710 C 189.274 129.230,189.170 129.126,188.690 129.310 C 188.210 129.494,188.106 129.390,188.290 128.910 C 188.474 128.430,188.370 128.326,187.890 128.510 C 187.410 128.694,187.306 128.590,187.490 128.110 C 187.674 127.630,187.570 127.526,187.090 127.710 C 186.610 127.894,186.506 127.790,186.690 127.310 C 186.874 126.830,186.770 126.726,186.290 126.910 C 185.810 127.094,185.706 126.990,185.890 126.510 C 186.074 126.030,185.970 125.926,185.490 126.110 C 185.010 126.294,184.906 126.190,185.090 125.710 C 185.274 125.230,185.170 125.126,184.690 125.310 C 184.210 125.494,184.106 125.390,184.290 124.910 C 184.474 124.430,184.370 124.326,183.890 124.510 C 183.410 124.694,183.306 124.590,183.490 124.110 C 183.674 123.630,183.570 123.526,183.090 123.710 C 182.610 123.894,182.506 123.790,182.690 123.310 C 182.874 122.830,182.770 122.726,182.290 122.910 C 181.810 123.094,181.706 122.990,181.890 122.510 C 182.074 122.030,181.970 121.926,181.490 122.110 C 181.010 122.294,180.906 122.190,181.090 121.710 C 181.274 121.230,181.170 121.126,180.690 121.310 C 180.210 121.494,180.106 121.390,180.290 120.910 C 180.474 120.430,180.370 120.326,179.890 120.510 C 179.410 120.694,179.306 120.590,179.490 120.110 C 179.674 119.630,179.570 119.526,179.090 119.710 C 178.610 119.894,178.506 119.790,178.690 119.310 C 178.874 118.830,178.770 118.726,178.290 118.910 C 177.810 119.094,177.706 118.990,177.890 118.510 C 178.074 118.030,177.970 117.926,177.490 118.110 C 177.010 118.294,176.906 118.190,177.090 117.710 C 177.274 117.230,177.170 117.126,176.690 117.310 C 176.210 117.494,176.106 117.390,176.290 116.910 C 176.474 116.430,176.370 116.326,175.890 116.510 C 175.410 116.694,175.306 116.590,175.490 116.110 C 175.674 115.630,175.570 115.526,175.090 115.710 C 174.610 115.894,174.506 115.790,174.690 115.310 C 174.874 114.830,174.770 114.726,174.290 114.910 C 173.810 115.094,173.706 114.990,173.890 114.510 C 174.074 114.030,173.970 113.926,173.490 114.110 C 173.010 114.294,172.906 114.190,173.090 113.710 C 173.274 113.230,173.170 113.126,172.690 113.310 C 172.210 113.494,172.106 113.390,172.290 112.910 C 172.474 112.430,172.370 112.326,171.890 112.510 C 171.410 112.694,171.306 112.590,171.490 112.110 C 171.674 111.630,171.570 111.526,171.090 111.710 C 170.610 111.894,170.506 111.790,170.690 111.310 C 170.874 110.830,170.770 110.726,170.290 110.910 C 169.810 111.094,169.706 110.990,169.890 110.510 C 170.074 110.030,169.970 109.926,169.490 110.110 C 169.010 110.294,168.906 110.190,169.090 109.710 C 169.274 109.230,169.170 109.126,168.690 109.310 C 168.210 109.494,168.106 109.390,168.290 108.910 C 168.474 108.430,168.370 108.326,167.890 108.510 C 167.410 108.694,167.306 108.590,167.490 108.110 C 167.674 107.630,167.570 107.526,167.090 107.710 C 166.610 107.894,166.506 107.790,166.690 107.310 C 166.874 106.830,166.770 106.726,166.290 106.910 C 165.810 107.094,165.706 106.990,165.890 106.510 C 166.074 106.030,165.970 105.926,165.490 106.110 C 165.010 106.294,164.906 106.190,165.090 105.710 C 165.274 105.230,165.170 105.126,164.690 105.310 C 164.210 105.494,164.106 105.390,164.290 104.910 C 164.474 104.430,164.370 104.326,163.890 104.510 C 163.410 104.694,163.306 104.590,163.490 104.110 C 163.674 103.630,163.570 103.526,163.090 103.710 C 162.610 103.894,162.506 103.790,162.690 103.310 C 162.874 102.830,162.770 102.726,162.290 102.910 C 161.810 103.094,161.706 102.990,161.890 102.510 C 162.074 102.030,161.970 101.926,161.490 102.110 C 161.010 102.294,160.906 102.190,161.090 101.710 C 161.274 101.230,161.170 101.126,160.690 101.310 C 160.210 101.494,160.106 101.390,160.290 100.910 C 160.474 100.430,160.370 100.326,159.890 100.510 C 159.410 100.694,159.306 100.590,159.490 100.110 C 159.674 99.630,159.570 99.526,159.090 99.710 C 158.610 99.894,158.506 99.790,158.690 99.310 C 158.874 98.830,158.770 98.726,158.290 98.910 C 157.810 99.094,157.706 98.990,157.890 98.510 C 158.074 98.030,157.970 97.926,157.490 98.110 C 157.010 98.294,156.906 98.190,157.090 97.710 C 157.274 97.230,157.170 97.126,156.690 97.310 C 156.210 97.494,156.106 97.390,156.290 96.910 C 156.474 96.430,156.370 96.326,155.890 96.510 C 155.410 96.694,155.306 96.590,155.490 96.110 C 155.674 95.630,155.570 95.526,155.090 95.710 C 154.610 95.894,154.506 95.790,154.690 95.310 C 154.874 94.830,154.770 94.726,154.290 94.910 C 153.810 95.094,153.706 94.990,153.890 94.510 C 154.074 94.030,153.970 93.926,153.490 94.110 C 153.010 94.294,152.906 94.190,153.090 93.710 C 153.274 93.230,153.170 93.126,152.690 93.310 C 152.210 93.494,152.106 93.390,152.290 92.910 C 152.474 92.430,152.370 92.326,151.890 92.510 C 151.410 92.694,151.306 92.590,151.490 92.110 C 151.674 91.630,151.570 91.526,151.090 91.710 C 150.610 91.894,150.506 91.790,150.690 91.310 C 150.874 90.830,150.770 90.726,150.290 90.910 C 149.810 91.094,149.706 90.990,149.890 90.510 C 150.074 90.030,149.970 89.926,149.490 90.110 C 149.010 90.294,148.906 90.190,149.090 89.710 C 149.274 89.230,149.170 89.126,148.690 89.310 C 148.210 89.494,148.106 89.390,148.290 88.910 C 148.474 88.430,148.370 88.326,147.890 88.510 C 147.410 88.694,147.306 88.590,147.490 88.110 C 147.674 87.630,147.570 87.526,147.090 87.710 C 146.610 87.894,146.506 87.790,146.690 87.310 C 146.874 86.830,146.770 86.726,146.290 86.910 C 145.810 87.094,145.706 86.990,145.890 86.510 C 146.074 86.030,145.970 85.926,145.490 86.110 C 145.010 86.294,144.906 86.190,145.090 85.710 C 145.274 85.230,145.170 85.126,144.690 85.310 C 144.210 85.494,144.106 85.390,144.290 84.910 C 144.474 84.430,144.370 84.326,143.890 84.510 C 143.410 84.694,143.306 84.590,143.490 84.110 C 143.674 83.630,143.570 83.526,143.090 83.710 C 142.610 83.894,142.506 83.790,142.690 83.310 C 142.874 82.830,142.770 82.726,142.290 82.910 C 141.810 83.094,141.706 82.990,141.890 82.510 C 142.074 82.030,141.970 81.926,141.490 82.110 C 141.010 82.294,140.906 82.190,141.090 81.710 C 141.274 81.230,141.170 81.126,140.690 81.310 C 140.210 81.494,140.106 81.390,140.290 80.910 C 140.474 80.430,140.370 80.326,139.890 80.510 C 139.410 80.694,139.306 80.590,139.490 80.110 C 139.674 79.630,139.570 79.526,139.090 79.710 C 138.610 79.894,138.506 79.790,138.690 79.310 C 138.874 78.830,138.770 78.726,138.290 78.910 C 137.810 79.094,137.706 78.990,137.890 78.510 C 138.074 78.030,137.970 77.926,137.490 78.110 C 137.010 78.294,136.906 78.190,137.090 77.710 C 137.274 77.230,137.170 77.126,136.690 77.310 C 136.210 77.494,136.106 77.390,136.290 76.910 C 136.474 76.430,136.370 76.326,135.890 76.510 C 135.410 76.694,135.306 76.590,135.490 76.110 C 135.674 75.630,135.570 75.526,135.090 75.710 C 134.610 75.894,134.506 75.790,134.690 75.310 C 134.874 74.830,134.770 74.726,134.290 74.910 C 133.810 75.094,133.706 74.990,133.890 74.510 C 134.074 74.030,133.970 73.926,133.490 74.110 C 133.010 74.294,132.906 74.190,133.090 73.710 C 133.274 73.230,133.170 73.126,132.690 73.310 C 132.210 73.494,132.106 73.390,132.290 72.910 C 132.474 72.430,132.370 72.326,131.890 72.510 C 131.410 72.694,131.306 72.590,131.490 72.110 C 131.674 71.630,131.570 71.526,131.090 71.710 C 130.610 71.894,130.506 71.790,130.690 71.310 C 130.874 70.830,130.770 70.726,130.290 70.910 C 129.810 71.094,129.706 70.990,129.890 70.510 C 130.074 70.030,129.970 69.926,129.490 70.110 C 129.010 70.294,128.906 70.190,129.090 69.710 C 129.274 69.230,129.170 69.126,128.690 69.310 C 128.210 69.494,128.106 69.390,128.290 68.910 C 128.474 68.430,128.370 68.326,127.890 68.510 C 127.410 68.694,127.306 68.590,127.490 68.110 C 127.674 67.630,127.570 67.526,127.090 67.710 C 126.610 67.894,126.506 67.790,126.690 67.310 C 126.874 66.830,126.770 66.726,126.290 66.910 C 125.810 67.094,125.706 66.990,125.890 66.510 C 126.074 66.030,125.970 65.926,125.490 66.110 C 125.010 66.294,124.906 66.190,125.090 65.710 C 125.274 65.230,125.170 65.126,124.690 65.310 C 124.210 65.494,124.106 65.390,124.290 64.910 C 124.474 64.430,124.370 64.326,123.890 64.510 C 123.410 64.694,123.306 64.590,123.490 64.110 C 123.674 63.630,123.570 63.526,123.090 63.710 C 122.610 63.894,122.506 63.790,122.690 63.310 C 122.874 62.830,122.770 62.726,122.290 62.910 C 121.810 63.094,121.706 62.990,121.890 62.510 C 122.074 62.030,121.970 61.926,121.490 62.110 C 121.010 62.294,120.906 62.190,121.090 61.710 C 121.274 61.230,121.170 61.126,120.690 61.310 C 120.210 61.494,120.106 61.390,120.290 60.910 C 120.474 60.430,120.370 60.326,119.890 60.510 C 119.410 60.694,119.306 60.590,119.490 60.110 C 119.674 59.630,119.570 59.526,119.090 59.710 C 118.610 59.894,118.506 59.790,118.690 59.310 C 118.874 58.830,118.770 58.726,118.290 58.910 C 117.810 59.094,117.706 58.990,117.890 58.510 C 118.074 58.030,117.970 57.926,117.490 58.110 C 117.010 58.294,116.906 58.190,117.090 57.710 C 117.274 57.230,117.170 57.126,116.690 57.310 C 116.210 57.494,116.106 57.390,116.290 56.910 C 116.474 56.430,116.370 56.326,115.890 56.510 C 115.410 56.694,115.306 56.590,115.490 56.110 C 115.674 55.630,115.570 55.526,115.090 55.710 C 114.610 55.894,114.506 55.790,114.690 55.310 C 114.874 54.830,114.770 54.726,114.290 54.910 C 113.810 55.094,113.706 54.990,113.890 54.510 C 114.074 54.030,113.970 53.926,113.490 54.110 C 113.010 54.294,112.906 54.190,113.090 53.710 C 113.274 53.230,113.170 53.126,112.690 53.310 C 112.210 53.494,112.106 53.390,112.290 52.910 C 112.474 52.430,112.370 52.326,111.890 52.510 C 111.410 52.694,111.306 52.590,111.490 52.110 C 111.674 51.630,111.570 51.526,111.090 51.710 C 110.610 51.894,110.506 51.790,110.690 51.310 C 110.874 50.830,110.770 50.726,110.290 50.910 C 109.810 51.094,109.706 50.990,109.890 50.510 C 110.074 50.030,109.970 49.926,109.490 50.110 C 109.010 50.294,108.906 50.190,109.090 49.710 C 109.274 49.230,109.170 49.126,108.690 49.310 C 108.210 49.494,108.106 49.390,108.290 48.910 C 108.474 48.430,108.370 48.326,107.890 48.510 C 107.410 48.694,107.306 48.590,107.490 48.110 C 107.674 47.630,107.570 47.526,107.090 47.710 C 106.610 47.894,106.506 47.790,106.690 47.310 C 106.874 46.830,106.770 46.726,106.290 46.910 C 105.810 47.094,105.706 46.990,105.890 46.510 C 106.074 46.030,105.970 45.926,105.490 46.110 C 105.010 46.294,104.906 46.190,105.090 45.710 C 105.274 45.230,105.170 45.126,104.690 45.310 C 104.210 45.494,104.106 45.390,104.290 44.910 C 104.474 44.430,104.370 44.326,103.890 44.510 C 103.410 44.694,103.306 44.590,103.490 44.110 C 103.674 43.630,103.570 43.526,103.090 43.710 C 102.610 43.894,102.506 43.790,102.690 43.310 C 102.874 42.830,102.770 42.726,102.290 42.910 C 101.810 43.094,101.706 42.990,101.890 42.510 C 102.074 42.030,101.970 41.926,101.490 42.110 C 101.010 42.294,100.906 42.190,101.090 41.710 C 101.274 41.230,101.170 41.126,100.690 41.310 C 100.210 41.494,100.106 41.390,100.290 40.910 C 100.474 40.430,100.370 40.326,99.890 40.510 C 99.410 40.694,99.306 40.590,99.490 40.110 C 99.674 39.630,99.570 39.526,99.090 39.710 C 98.610 39.894,98.506 39.790,98.690 39.310 C 98.874 38.830,98.770 38.726,98.290 38.910 C 97.810 39.094,97.706 38.990,97.890 38.510 C 98.074 38.030,97.970 37.926,97.490 38.110 C 97.010 38.294,96.906 38.190,97.090 37.710 C 97.274 37.230,97.170 37.126,96.690 37.310 C 96.210 37.494,96.106 37.390,96.290 36.910 C 96.474 36.430,96.370 36.326,95.890 36.510 C 95.410 36.694,95.306 36.590,95.490 36.110 C 95.674 35.630,95.570 35.526,95.090 35.710 C 94.610 35.894,94.506 35.790,94.690 35.310 C 94.874 34.830,94.770 34.726,94.290 34.910 C 93.810 35.094,93.706 34.990,93.890 34.510 C 94.074 34.030,93.970 33.926,93.490 34.110 C 93.010 34.294,92.906 34.190,93.090 33.710 C 93.274 33.230,93.170 33.126,92.690 33.310 C 92.210 33.494,92.106 33.390,92.290 32.910 C 92.474 32.430,92.370 32.326,91.890 32.510 C 91.410 32.694,91.306 32.590,91.490 32.110 C 91.674 31.630,91.570 31.526,91.090 31.710 C 90.610 31.894,90.506 31.790,90.690 31.310 C 90.874 30.830,90.770 30.726,90.290 30.910 C 89.810 31.094,89.706 30.990,89.890 30.510 C 90.074 30.030,89.970 29.926,89.490 30.110 C 89.010 30.294,88.906 30.190,89.090 29.710 C 89.274 29.230,89.170 29.126,88.690 29.310 C 88.210 29.494,88.106 29.390,88.290 28.910 C 88.474 28.430,88.370 28.326,87.890 28.510 C 87.410 28.694,87.306 28.590,87.490 28.110 C 87.674 27.630,87.570 27.526,87.090 27.710 C 86.610 27.894,86.506 27.790,86.690 27.310 C 86.874 26.830,86.770 26.726,86.290 26.910 C 85.810 27.094,85.706 26.990,85.890 26.510 C 86.074 26.030,85.970 25.926,85.490 26.110 C 85.010 26.294,84.906 26.190,85.090 25.710 C 85.274 25.230,85.170 25.126,84.690 25.310 C 84.210 25.494,84.106 25.390,84.290 24.910 C 84.474 24.430,84.370 24.326,83.890 24.510 C 83.410 24.694,83.306 24.590,83.490 24.110 C 83.674 23.630,83.570 23.526,83.090 23.710 C 82.610 23.894,82.506 23.790,82.690 23.310 C 82.874 22.830,82.770 22.726,82.290 22.910 C 81.810 23.094,81.706 22.990,81.890 22.510 C 82.074 22.030,81.970 21.926,81.490 22.110 C 81.010 22.294,80.906 22.190,81.090 21.710 C 81.274 21.230,81.170 21.126,80.690 21.310 C 80.210 21.494,80.106 21.390,80.290 20.910 C 80.474 20.430,80.370 20.326,79.890 20.510 C 79.410 20.694,79.306 20.590,79.490 20.110 C 79.674 19.630,79.570 19.526,79.090 19.710 C 78.610 19.894,78.506 19.790,78.690 19.310 C 78.874 18.830,78.770 18.726,78.290 18.910 C 77.810 19.094,77.706 18.990,77.890 18.510 C 78.074 18.030,77.970 17.926,77.490 18.110 C 77.010 18.294,76.906 18.190,77.090 17.710 C 77.274 17.230,77.170 17.126,76.690 17.310 C 76.210 17.494,76.106 17.390,76.290 16.910 C 76.474 16.430,76.370 16.326,75.890 16.510 C 75.410 16.694,75.306 16.590,75.490 16.110 C 75.674 15.630,75.570 15.526,75.090 15.710 C 74.610 15.894,74.506 15.790,74.690 15.310 C 74.874 14.830,74.770 14.726,74.290 14.910 C 73.810 15.094,73.706 14.990,73.890 14.510 C 74.074 14.030,73.970 13.926,73.490 14.110 C 73.010 14.294,72.906 14.190,73.090 13.710 C 73.274 13.230,73.170 13.126,72.690 13.310 C 72.210 13.494,72.106 13.390,72.290 12.910 C 72.474 12.430,72.370 12.326,71.890 12.510 C 71.410 12.694,71.306 12.590,71.490 12.110 C 71.674 11.630,71.570 11.526,71.090 11.710 C 70.610 11.894,70.506 11.790,70.690 11.310 C 70.874 10.830,70.770 10.726,70.290 10.910 C 69.811 11.094,69.706 10.990,69.888 10.515 C 70.079 10.018,69.947 9.921,69.309 10.087 C 68.715 10.243,68.338 10.032,67.967 9.338 C 67.672 8.787,67.215 8.462,66.904 8.581 C 66.604 8.697,66.469 8.612,66.605 8.392 C 66.928 7.869,65.724 6.676,65.200 7.000 C 64.977 7.138,64.682 6.959,64.546 6.602 C 64.409 6.246,64.059 6.045,63.769 6.157 C 63.433 6.285,63.322 6.148,63.463 5.780 C 63.609 5.400,63.426 5.200,62.931 5.200 C 62.516 5.200,61.917 4.840,61.600 4.400 C 61.283 3.960,60.703 3.600,60.312 3.600 C 59.920 3.600,59.600 3.420,59.600 3.200 C 59.600 2.980,59.060 2.800,58.400 2.800 C 57.740 2.800,57.200 2.616,57.200 2.392 C 57.200 2.168,56.761 2.064,56.224 2.161 C 55.465 2.299,55.302 2.199,55.490 1.710 C 55.683 1.207,55.513 1.123,54.634 1.291 C 53.897 1.432,53.464 1.312,53.316 0.924 C 53.171 0.547,52.637 0.387,51.769 0.462 C 51.039 0.525,50.326 0.459,50.182 0.315 C 49.850 -0.017,32.640 -0.107,32.312 0.222 " stroke="none" fill="#ec1c24" fill-rule="evenodd"></path><path id="path1" d="" stroke="none" fill="#f01c24" fill-rule="evenodd"></path><path id="path2" d="" stroke="none" fill="#f01c24" fill-rule="evenodd"></path><path id="path3" d="" stroke="none" fill="#f01c24" fill-rule="evenodd"></path><path id="path4" d="" stroke="none" fill="#f01c24" fill-rule="evenodd"></path></g></svg>