<?xml version="1.0" encoding="utf-8"?>
<!-- Svg Vector Icons : http://www.onlinewebfonts.com/icon -->
<!DOCTYPE svg PUBLIC "-//W3C//DTD SVG 1.1//EN" "http://www.w3.org/Graphics/SVG/1.1/DTD/svg11.dtd">
<svg version="1.1" xmlns="http://www.w3.org/2000/svg" xmlns:xlink="http://www.w3.org/1999/xlink" x="0px" y="0px" viewBox="0 0 1000 1000" enable-background="new 0 0 1000 1000" xml:space="preserve">
<metadata> Svg Vector Icons : http://www.onlinewebfonts.com/icon </metadata>
<g><path d="M500,10C229.4,10,10,229.4,10,500s219.4,490,490,490s490-219.4,490-490S770.6,10,500,10L500,10z M500,898.1c-219.8,0-398.1-178.2-398.1-398.1c0-219.8,178.2-398.1,398.1-398.1c219.8,0,398.1,178.2,398.1,398.1C898.1,719.8,719.8,898.1,500,898.1z"/><path d="M443.2,389.7h109.9v426.5H443.2V389.7z"/><path d="M500,192.1c-36.6,0-66.3,29.7-66.3,66.3c0,0.1,0,0.1,0,0.2s0,0.1,0,0.2c0,33.2,24.3,60.6,56.1,65.5c-0.1-0.1-0.2-0.3-0.3-0.4c3.4,0.5,6.9,0.8,10.4,0.8c36.6,0,66.3-29.7,66.3-66.3S536.6,192.1,500,192.1L500,192.1z"/></g>
</svg>